%TF.GenerationSoftware,KiCad,Pcbnew,9.0.7*%
%TF.CreationDate,2026-06-26T14:52:55+05:30*%
%TF.ProjectId,GameController,47616d65-436f-46e7-9472-6f6c6c65722e,rev?*%
%TF.SameCoordinates,Original*%
%TF.FileFunction,Soldermask,Top*%
%TF.FilePolarity,Negative*%
%FSLAX46Y46*%
G04 Gerber Fmt 4.6, Leading zero omitted, Abs format (unit mm)*
G04 Created by KiCad (PCBNEW 9.0.7) date 2026-06-26 14:52:55*
%MOMM*%
%LPD*%
G01*
G04 APERTURE LIST*
G04 Aperture macros list*
%AMRoundRect*
0 Rectangle with rounded corners*
0 $1 Rounding radius*
0 $2 $3 $4 $5 $6 $7 $8 $9 X,Y pos of 4 corners*
0 Add a 4 corners polygon primitive as box body*
4,1,4,$2,$3,$4,$5,$6,$7,$8,$9,$2,$3,0*
0 Add four circle primitives for the rounded corners*
1,1,$1+$1,$2,$3*
1,1,$1+$1,$4,$5*
1,1,$1+$1,$6,$7*
1,1,$1+$1,$8,$9*
0 Add four rect primitives between the rounded corners*
20,1,$1+$1,$2,$3,$4,$5,0*
20,1,$1+$1,$4,$5,$6,$7,0*
20,1,$1+$1,$6,$7,$8,$9,0*
20,1,$1+$1,$8,$9,$2,$3,0*%
G04 Aperture macros list end*
%ADD10C,2.200000*%
%ADD11C,1.700000*%
%ADD12RoundRect,0.102000X-0.975000X-0.975000X0.975000X-0.975000X0.975000X0.975000X-0.975000X0.975000X0*%
%ADD13C,2.154000*%
%ADD14R,1.800000X1.800000*%
%ADD15C,1.800000*%
%ADD16C,5.600000*%
%ADD17O,1.900000X1.524000*%
%ADD18R,1.700000X1.700000*%
%ADD19C,2.000000*%
G04 APERTURE END LIST*
D10*
%TO.C,SW6*%
X199500000Y-50425000D03*
X206500000Y-50425000D03*
D11*
X200750000Y-47925000D03*
X205250000Y-47925000D03*
%TD*%
D12*
%TO.C,SW10*%
X93500000Y-64000000D03*
D13*
X106000000Y-64000000D03*
X93500000Y-69000000D03*
X106000000Y-69000000D03*
%TD*%
D12*
%TO.C,SW4*%
X192000000Y-64500000D03*
D13*
X204500000Y-64500000D03*
X192000000Y-69500000D03*
X204500000Y-69500000D03*
%TD*%
D14*
%TO.C,D1*%
X131725000Y-97000000D03*
D15*
X134265000Y-97000000D03*
%TD*%
D16*
%TO.C,REF\u002A\u002A*%
X82750000Y-127250000D03*
%TD*%
D17*
%TO.C,U1*%
X165900000Y-52960000D03*
X165900000Y-55500000D03*
X165900000Y-58040000D03*
X165900000Y-60580000D03*
X165900000Y-63120000D03*
X165900000Y-65660000D03*
X165900000Y-68200000D03*
X165900000Y-70740000D03*
X165900000Y-73280000D03*
X165900000Y-75820000D03*
X165900000Y-78360000D03*
X165900000Y-80900000D03*
X165900000Y-83440000D03*
X165900000Y-85980000D03*
X165900000Y-88520000D03*
X140500000Y-52960000D03*
X140500000Y-55500000D03*
X140500000Y-58040000D03*
X140500000Y-60580000D03*
X140500000Y-63120000D03*
X140500000Y-65660000D03*
X140500000Y-68200000D03*
X140500000Y-70740000D03*
X140500000Y-73280000D03*
X140500000Y-75820000D03*
X140500000Y-78360000D03*
X140500000Y-80900000D03*
X140500000Y-83440000D03*
X140500000Y-85980000D03*
X140500000Y-88520000D03*
%TD*%
D18*
%TO.C,J1*%
X113170000Y-128135000D03*
D11*
X115710000Y-128135000D03*
X118250000Y-128135000D03*
X120790000Y-128135000D03*
X123330000Y-128135000D03*
%TD*%
D12*
%TO.C,SW11*%
X93750000Y-89000000D03*
D13*
X106250000Y-89000000D03*
X93750000Y-94000000D03*
X106250000Y-94000000D03*
%TD*%
D12*
%TO.C,SW13*%
X102000000Y-76500000D03*
D13*
X114500000Y-76500000D03*
X102000000Y-81500000D03*
X114500000Y-81500000D03*
%TD*%
D12*
%TO.C,SW8*%
X171000000Y-49500000D03*
D13*
X183500000Y-49500000D03*
X171000000Y-54500000D03*
X183500000Y-54500000D03*
%TD*%
D12*
%TO.C,SW9*%
X122250000Y-49750000D03*
D13*
X134750000Y-49750000D03*
X122250000Y-54750000D03*
X134750000Y-54750000D03*
%TD*%
D12*
%TO.C,SW12*%
X86000000Y-76500000D03*
D13*
X98500000Y-76500000D03*
X86000000Y-81500000D03*
X98500000Y-81500000D03*
%TD*%
D12*
%TO.C,SW2*%
X202250000Y-77000000D03*
D13*
X214750000Y-77000000D03*
X202250000Y-82000000D03*
X214750000Y-82000000D03*
%TD*%
D16*
%TO.C,REF\u002A\u002A*%
X215750000Y-127250000D03*
%TD*%
D10*
%TO.C,SW5*%
X95000000Y-50425000D03*
X102000000Y-50425000D03*
D11*
X96250000Y-47925000D03*
X100750000Y-47925000D03*
%TD*%
D12*
%TO.C,SW3*%
X181750000Y-77000000D03*
D13*
X194250000Y-77000000D03*
X181750000Y-82000000D03*
X194250000Y-82000000D03*
%TD*%
D18*
%TO.C,J3*%
X182420000Y-129135000D03*
D11*
X184960000Y-129135000D03*
X187500000Y-129135000D03*
X190040000Y-129135000D03*
X192580000Y-129135000D03*
%TD*%
D16*
%TO.C,REF\u002A\u002A*%
X82500000Y-51000000D03*
%TD*%
D12*
%TO.C,SW1*%
X192000000Y-89500000D03*
D13*
X204500000Y-89500000D03*
X192000000Y-94500000D03*
X204500000Y-94500000D03*
%TD*%
D16*
%TO.C,REF\u002A\u002A*%
X215500000Y-51000000D03*
%TD*%
D19*
%TO.C,J2*%
X159960000Y-131500000D03*
X145960000Y-131500000D03*
X159960000Y-108500000D03*
X145960000Y-108500000D03*
X157420000Y-108500000D03*
X148500000Y-108500000D03*
%TD*%
D18*
%TO.C,J4*%
X90500000Y-124250000D03*
D11*
X90500000Y-126790000D03*
%TD*%
D18*
%TO.C,SW15*%
X133500000Y-127000000D03*
D11*
X136040000Y-127000000D03*
%TD*%
M02*
