%TF.GenerationSoftware,KiCad,Pcbnew,9.0.7*%
%TF.CreationDate,2026-06-26T14:52:55+05:30*%
%TF.ProjectId,GameController,47616d65-436f-46e7-9472-6f6c6c65722e,rev?*%
%TF.SameCoordinates,Original*%
%TF.FileFunction,Legend,Top*%
%TF.FilePolarity,Positive*%
%FSLAX46Y46*%
G04 Gerber Fmt 4.6, Leading zero omitted, Abs format (unit mm)*
G04 Created by KiCad (PCBNEW 9.0.7) date 2026-06-26 14:52:55*
%MOMM*%
%LPD*%
G01*
G04 APERTURE LIST*
%ADD10C,0.150000*%
%ADD11C,0.100000*%
%ADD12C,0.120000*%
%ADD13C,0.127000*%
%ADD14C,0.200000*%
G04 APERTURE END LIST*
D10*
X201666667Y-50832200D02*
X201809524Y-50879819D01*
X201809524Y-50879819D02*
X202047619Y-50879819D01*
X202047619Y-50879819D02*
X202142857Y-50832200D01*
X202142857Y-50832200D02*
X202190476Y-50784580D01*
X202190476Y-50784580D02*
X202238095Y-50689342D01*
X202238095Y-50689342D02*
X202238095Y-50594104D01*
X202238095Y-50594104D02*
X202190476Y-50498866D01*
X202190476Y-50498866D02*
X202142857Y-50451247D01*
X202142857Y-50451247D02*
X202047619Y-50403628D01*
X202047619Y-50403628D02*
X201857143Y-50356009D01*
X201857143Y-50356009D02*
X201761905Y-50308390D01*
X201761905Y-50308390D02*
X201714286Y-50260771D01*
X201714286Y-50260771D02*
X201666667Y-50165533D01*
X201666667Y-50165533D02*
X201666667Y-50070295D01*
X201666667Y-50070295D02*
X201714286Y-49975057D01*
X201714286Y-49975057D02*
X201761905Y-49927438D01*
X201761905Y-49927438D02*
X201857143Y-49879819D01*
X201857143Y-49879819D02*
X202095238Y-49879819D01*
X202095238Y-49879819D02*
X202238095Y-49927438D01*
X202571429Y-49879819D02*
X202809524Y-50879819D01*
X202809524Y-50879819D02*
X203000000Y-50165533D01*
X203000000Y-50165533D02*
X203190476Y-50879819D01*
X203190476Y-50879819D02*
X203428572Y-49879819D01*
X204238095Y-49879819D02*
X204047619Y-49879819D01*
X204047619Y-49879819D02*
X203952381Y-49927438D01*
X203952381Y-49927438D02*
X203904762Y-49975057D01*
X203904762Y-49975057D02*
X203809524Y-50117914D01*
X203809524Y-50117914D02*
X203761905Y-50308390D01*
X203761905Y-50308390D02*
X203761905Y-50689342D01*
X203761905Y-50689342D02*
X203809524Y-50784580D01*
X203809524Y-50784580D02*
X203857143Y-50832200D01*
X203857143Y-50832200D02*
X203952381Y-50879819D01*
X203952381Y-50879819D02*
X204142857Y-50879819D01*
X204142857Y-50879819D02*
X204238095Y-50832200D01*
X204238095Y-50832200D02*
X204285714Y-50784580D01*
X204285714Y-50784580D02*
X204333333Y-50689342D01*
X204333333Y-50689342D02*
X204333333Y-50451247D01*
X204333333Y-50451247D02*
X204285714Y-50356009D01*
X204285714Y-50356009D02*
X204238095Y-50308390D01*
X204238095Y-50308390D02*
X204142857Y-50260771D01*
X204142857Y-50260771D02*
X203952381Y-50260771D01*
X203952381Y-50260771D02*
X203857143Y-50308390D01*
X203857143Y-50308390D02*
X203809524Y-50356009D01*
X203809524Y-50356009D02*
X203761905Y-50451247D01*
X93094014Y-59520687D02*
X93208471Y-59558839D01*
X93208471Y-59558839D02*
X93399232Y-59558839D01*
X93399232Y-59558839D02*
X93475537Y-59520687D01*
X93475537Y-59520687D02*
X93513689Y-59482534D01*
X93513689Y-59482534D02*
X93551841Y-59406230D01*
X93551841Y-59406230D02*
X93551841Y-59329925D01*
X93551841Y-59329925D02*
X93513689Y-59253621D01*
X93513689Y-59253621D02*
X93475537Y-59215469D01*
X93475537Y-59215469D02*
X93399232Y-59177316D01*
X93399232Y-59177316D02*
X93246623Y-59139164D01*
X93246623Y-59139164D02*
X93170319Y-59101012D01*
X93170319Y-59101012D02*
X93132167Y-59062860D01*
X93132167Y-59062860D02*
X93094014Y-58986555D01*
X93094014Y-58986555D02*
X93094014Y-58910251D01*
X93094014Y-58910251D02*
X93132167Y-58833946D01*
X93132167Y-58833946D02*
X93170319Y-58795794D01*
X93170319Y-58795794D02*
X93246623Y-58757642D01*
X93246623Y-58757642D02*
X93437385Y-58757642D01*
X93437385Y-58757642D02*
X93551841Y-58795794D01*
X93818907Y-58757642D02*
X94009668Y-59558839D01*
X94009668Y-59558839D02*
X94162277Y-58986555D01*
X94162277Y-58986555D02*
X94314886Y-59558839D01*
X94314886Y-59558839D02*
X94505648Y-58757642D01*
X95230540Y-59558839D02*
X94772713Y-59558839D01*
X95001627Y-59558839D02*
X95001627Y-58757642D01*
X95001627Y-58757642D02*
X94925322Y-58872098D01*
X94925322Y-58872098D02*
X94849018Y-58948403D01*
X94849018Y-58948403D02*
X94772713Y-58986555D01*
X95726520Y-58757642D02*
X95802824Y-58757642D01*
X95802824Y-58757642D02*
X95879129Y-58795794D01*
X95879129Y-58795794D02*
X95917281Y-58833946D01*
X95917281Y-58833946D02*
X95955433Y-58910251D01*
X95955433Y-58910251D02*
X95993585Y-59062860D01*
X95993585Y-59062860D02*
X95993585Y-59253621D01*
X95993585Y-59253621D02*
X95955433Y-59406230D01*
X95955433Y-59406230D02*
X95917281Y-59482534D01*
X95917281Y-59482534D02*
X95879129Y-59520687D01*
X95879129Y-59520687D02*
X95802824Y-59558839D01*
X95802824Y-59558839D02*
X95726520Y-59558839D01*
X95726520Y-59558839D02*
X95650215Y-59520687D01*
X95650215Y-59520687D02*
X95612063Y-59482534D01*
X95612063Y-59482534D02*
X95573911Y-59406230D01*
X95573911Y-59406230D02*
X95535758Y-59253621D01*
X95535758Y-59253621D02*
X95535758Y-59062860D01*
X95535758Y-59062860D02*
X95573911Y-58910251D01*
X95573911Y-58910251D02*
X95612063Y-58833946D01*
X95612063Y-58833946D02*
X95650215Y-58795794D01*
X95650215Y-58795794D02*
X95726520Y-58757642D01*
X191975536Y-60020687D02*
X192089993Y-60058839D01*
X192089993Y-60058839D02*
X192280754Y-60058839D01*
X192280754Y-60058839D02*
X192357059Y-60020687D01*
X192357059Y-60020687D02*
X192395211Y-59982534D01*
X192395211Y-59982534D02*
X192433363Y-59906230D01*
X192433363Y-59906230D02*
X192433363Y-59829925D01*
X192433363Y-59829925D02*
X192395211Y-59753621D01*
X192395211Y-59753621D02*
X192357059Y-59715469D01*
X192357059Y-59715469D02*
X192280754Y-59677316D01*
X192280754Y-59677316D02*
X192128145Y-59639164D01*
X192128145Y-59639164D02*
X192051841Y-59601012D01*
X192051841Y-59601012D02*
X192013689Y-59562860D01*
X192013689Y-59562860D02*
X191975536Y-59486555D01*
X191975536Y-59486555D02*
X191975536Y-59410251D01*
X191975536Y-59410251D02*
X192013689Y-59333946D01*
X192013689Y-59333946D02*
X192051841Y-59295794D01*
X192051841Y-59295794D02*
X192128145Y-59257642D01*
X192128145Y-59257642D02*
X192318907Y-59257642D01*
X192318907Y-59257642D02*
X192433363Y-59295794D01*
X192700429Y-59257642D02*
X192891190Y-60058839D01*
X192891190Y-60058839D02*
X193043799Y-59486555D01*
X193043799Y-59486555D02*
X193196408Y-60058839D01*
X193196408Y-60058839D02*
X193387170Y-59257642D01*
X194035758Y-59524707D02*
X194035758Y-60058839D01*
X193844997Y-59219490D02*
X193654235Y-59791773D01*
X193654235Y-59791773D02*
X194150215Y-59791773D01*
X130761905Y-94954819D02*
X130761905Y-93954819D01*
X130761905Y-93954819D02*
X131000000Y-93954819D01*
X131000000Y-93954819D02*
X131142857Y-94002438D01*
X131142857Y-94002438D02*
X131238095Y-94097676D01*
X131238095Y-94097676D02*
X131285714Y-94192914D01*
X131285714Y-94192914D02*
X131333333Y-94383390D01*
X131333333Y-94383390D02*
X131333333Y-94526247D01*
X131333333Y-94526247D02*
X131285714Y-94716723D01*
X131285714Y-94716723D02*
X131238095Y-94811961D01*
X131238095Y-94811961D02*
X131142857Y-94907200D01*
X131142857Y-94907200D02*
X131000000Y-94954819D01*
X131000000Y-94954819D02*
X130761905Y-94954819D01*
X132285714Y-94954819D02*
X131714286Y-94954819D01*
X132000000Y-94954819D02*
X132000000Y-93954819D01*
X132000000Y-93954819D02*
X131904762Y-94097676D01*
X131904762Y-94097676D02*
X131809524Y-94192914D01*
X131809524Y-94192914D02*
X131714286Y-94240533D01*
X81416666Y-123954819D02*
X81083333Y-123478628D01*
X80845238Y-123954819D02*
X80845238Y-122954819D01*
X80845238Y-122954819D02*
X81226190Y-122954819D01*
X81226190Y-122954819D02*
X81321428Y-123002438D01*
X81321428Y-123002438D02*
X81369047Y-123050057D01*
X81369047Y-123050057D02*
X81416666Y-123145295D01*
X81416666Y-123145295D02*
X81416666Y-123288152D01*
X81416666Y-123288152D02*
X81369047Y-123383390D01*
X81369047Y-123383390D02*
X81321428Y-123431009D01*
X81321428Y-123431009D02*
X81226190Y-123478628D01*
X81226190Y-123478628D02*
X80845238Y-123478628D01*
X81845238Y-123431009D02*
X82178571Y-123431009D01*
X82321428Y-123954819D02*
X81845238Y-123954819D01*
X81845238Y-123954819D02*
X81845238Y-122954819D01*
X81845238Y-122954819D02*
X82321428Y-122954819D01*
X83083333Y-123431009D02*
X82750000Y-123431009D01*
X82750000Y-123954819D02*
X82750000Y-122954819D01*
X82750000Y-122954819D02*
X83226190Y-122954819D01*
X83750000Y-122954819D02*
X83750000Y-123192914D01*
X83511905Y-123097676D02*
X83750000Y-123192914D01*
X83750000Y-123192914D02*
X83988095Y-123097676D01*
X83607143Y-123383390D02*
X83750000Y-123192914D01*
X83750000Y-123192914D02*
X83892857Y-123383390D01*
X84511905Y-122954819D02*
X84511905Y-123192914D01*
X84273810Y-123097676D02*
X84511905Y-123192914D01*
X84511905Y-123192914D02*
X84750000Y-123097676D01*
X84369048Y-123383390D02*
X84511905Y-123192914D01*
X84511905Y-123192914D02*
X84654762Y-123383390D01*
D11*
X164301909Y-53607393D02*
X163935242Y-52607393D01*
X163935242Y-52607393D02*
X163568575Y-53607393D01*
X163201909Y-52607393D02*
X163201909Y-53607393D01*
X162678099Y-52607393D02*
X162678099Y-53607393D01*
X162678099Y-53607393D02*
X162049527Y-52607393D01*
X162049527Y-52607393D02*
X162049527Y-53607393D01*
X164068575Y-78559774D02*
X164173337Y-78607393D01*
X164173337Y-78607393D02*
X164330480Y-78607393D01*
X164330480Y-78607393D02*
X164487623Y-78559774D01*
X164487623Y-78559774D02*
X164592385Y-78464536D01*
X164592385Y-78464536D02*
X164644766Y-78369298D01*
X164644766Y-78369298D02*
X164697147Y-78178822D01*
X164697147Y-78178822D02*
X164697147Y-78035965D01*
X164697147Y-78035965D02*
X164644766Y-77845489D01*
X164644766Y-77845489D02*
X164592385Y-77750251D01*
X164592385Y-77750251D02*
X164487623Y-77655013D01*
X164487623Y-77655013D02*
X164330480Y-77607393D01*
X164330480Y-77607393D02*
X164225718Y-77607393D01*
X164225718Y-77607393D02*
X164068575Y-77655013D01*
X164068575Y-77655013D02*
X164016194Y-77702632D01*
X164016194Y-77702632D02*
X164016194Y-78035965D01*
X164016194Y-78035965D02*
X164225718Y-78035965D01*
X163544766Y-77607393D02*
X163544766Y-78607393D01*
X163544766Y-78607393D02*
X163125718Y-78607393D01*
X163125718Y-78607393D02*
X163020956Y-78559774D01*
X163020956Y-78559774D02*
X162968575Y-78512155D01*
X162968575Y-78512155D02*
X162916194Y-78416917D01*
X162916194Y-78416917D02*
X162916194Y-78274060D01*
X162916194Y-78274060D02*
X162968575Y-78178822D01*
X162968575Y-78178822D02*
X163020956Y-78131203D01*
X163020956Y-78131203D02*
X163125718Y-78083584D01*
X163125718Y-78083584D02*
X163544766Y-78083584D01*
X162444766Y-77607393D02*
X162444766Y-78607393D01*
X161711432Y-78607393D02*
X161501908Y-78607393D01*
X161501908Y-78607393D02*
X161397146Y-78559774D01*
X161397146Y-78559774D02*
X161292384Y-78464536D01*
X161292384Y-78464536D02*
X161240003Y-78274060D01*
X161240003Y-78274060D02*
X161240003Y-77940727D01*
X161240003Y-77940727D02*
X161292384Y-77750251D01*
X161292384Y-77750251D02*
X161397146Y-77655013D01*
X161397146Y-77655013D02*
X161501908Y-77607393D01*
X161501908Y-77607393D02*
X161711432Y-77607393D01*
X161711432Y-77607393D02*
X161816194Y-77655013D01*
X161816194Y-77655013D02*
X161920956Y-77750251D01*
X161920956Y-77750251D02*
X161973337Y-77940727D01*
X161973337Y-77940727D02*
X161973337Y-78274060D01*
X161973337Y-78274060D02*
X161920956Y-78464536D01*
X161920956Y-78464536D02*
X161816194Y-78559774D01*
X161816194Y-78559774D02*
X161711432Y-78607393D01*
X160873337Y-78607393D02*
X160192384Y-78607393D01*
X160192384Y-78607393D02*
X160559051Y-78226441D01*
X160559051Y-78226441D02*
X160401908Y-78226441D01*
X160401908Y-78226441D02*
X160297146Y-78178822D01*
X160297146Y-78178822D02*
X160244765Y-78131203D01*
X160244765Y-78131203D02*
X160192384Y-78035965D01*
X160192384Y-78035965D02*
X160192384Y-77797870D01*
X160192384Y-77797870D02*
X160244765Y-77702632D01*
X160244765Y-77702632D02*
X160297146Y-77655013D01*
X160297146Y-77655013D02*
X160401908Y-77607393D01*
X160401908Y-77607393D02*
X160716194Y-77607393D01*
X160716194Y-77607393D02*
X160820956Y-77655013D01*
X160820956Y-77655013D02*
X160873337Y-77702632D01*
X159197146Y-78607393D02*
X159720956Y-78607393D01*
X159720956Y-78607393D02*
X159773337Y-78131203D01*
X159773337Y-78131203D02*
X159720956Y-78178822D01*
X159720956Y-78178822D02*
X159616194Y-78226441D01*
X159616194Y-78226441D02*
X159354289Y-78226441D01*
X159354289Y-78226441D02*
X159249527Y-78178822D01*
X159249527Y-78178822D02*
X159197146Y-78131203D01*
X159197146Y-78131203D02*
X159144765Y-78035965D01*
X159144765Y-78035965D02*
X159144765Y-77797870D01*
X159144765Y-77797870D02*
X159197146Y-77702632D01*
X159197146Y-77702632D02*
X159249527Y-77655013D01*
X159249527Y-77655013D02*
X159354289Y-77607393D01*
X159354289Y-77607393D02*
X159616194Y-77607393D01*
X159616194Y-77607393D02*
X159720956Y-77655013D01*
X159720956Y-77655013D02*
X159773337Y-77702632D01*
X164068575Y-81059774D02*
X164173337Y-81107393D01*
X164173337Y-81107393D02*
X164330480Y-81107393D01*
X164330480Y-81107393D02*
X164487623Y-81059774D01*
X164487623Y-81059774D02*
X164592385Y-80964536D01*
X164592385Y-80964536D02*
X164644766Y-80869298D01*
X164644766Y-80869298D02*
X164697147Y-80678822D01*
X164697147Y-80678822D02*
X164697147Y-80535965D01*
X164697147Y-80535965D02*
X164644766Y-80345489D01*
X164644766Y-80345489D02*
X164592385Y-80250251D01*
X164592385Y-80250251D02*
X164487623Y-80155013D01*
X164487623Y-80155013D02*
X164330480Y-80107393D01*
X164330480Y-80107393D02*
X164225718Y-80107393D01*
X164225718Y-80107393D02*
X164068575Y-80155013D01*
X164068575Y-80155013D02*
X164016194Y-80202632D01*
X164016194Y-80202632D02*
X164016194Y-80535965D01*
X164016194Y-80535965D02*
X164225718Y-80535965D01*
X163544766Y-80107393D02*
X163544766Y-81107393D01*
X163544766Y-81107393D02*
X163125718Y-81107393D01*
X163125718Y-81107393D02*
X163020956Y-81059774D01*
X163020956Y-81059774D02*
X162968575Y-81012155D01*
X162968575Y-81012155D02*
X162916194Y-80916917D01*
X162916194Y-80916917D02*
X162916194Y-80774060D01*
X162916194Y-80774060D02*
X162968575Y-80678822D01*
X162968575Y-80678822D02*
X163020956Y-80631203D01*
X163020956Y-80631203D02*
X163125718Y-80583584D01*
X163125718Y-80583584D02*
X163544766Y-80583584D01*
X162444766Y-80107393D02*
X162444766Y-81107393D01*
X161711432Y-81107393D02*
X161501908Y-81107393D01*
X161501908Y-81107393D02*
X161397146Y-81059774D01*
X161397146Y-81059774D02*
X161292384Y-80964536D01*
X161292384Y-80964536D02*
X161240003Y-80774060D01*
X161240003Y-80774060D02*
X161240003Y-80440727D01*
X161240003Y-80440727D02*
X161292384Y-80250251D01*
X161292384Y-80250251D02*
X161397146Y-80155013D01*
X161397146Y-80155013D02*
X161501908Y-80107393D01*
X161501908Y-80107393D02*
X161711432Y-80107393D01*
X161711432Y-80107393D02*
X161816194Y-80155013D01*
X161816194Y-80155013D02*
X161920956Y-80250251D01*
X161920956Y-80250251D02*
X161973337Y-80440727D01*
X161973337Y-80440727D02*
X161973337Y-80774060D01*
X161973337Y-80774060D02*
X161920956Y-80964536D01*
X161920956Y-80964536D02*
X161816194Y-81059774D01*
X161816194Y-81059774D02*
X161711432Y-81107393D01*
X160873337Y-81107393D02*
X160192384Y-81107393D01*
X160192384Y-81107393D02*
X160559051Y-80726441D01*
X160559051Y-80726441D02*
X160401908Y-80726441D01*
X160401908Y-80726441D02*
X160297146Y-80678822D01*
X160297146Y-80678822D02*
X160244765Y-80631203D01*
X160244765Y-80631203D02*
X160192384Y-80535965D01*
X160192384Y-80535965D02*
X160192384Y-80297870D01*
X160192384Y-80297870D02*
X160244765Y-80202632D01*
X160244765Y-80202632D02*
X160297146Y-80155013D01*
X160297146Y-80155013D02*
X160401908Y-80107393D01*
X160401908Y-80107393D02*
X160716194Y-80107393D01*
X160716194Y-80107393D02*
X160820956Y-80155013D01*
X160820956Y-80155013D02*
X160873337Y-80202632D01*
X159249527Y-80774060D02*
X159249527Y-80107393D01*
X159511432Y-81155013D02*
X159773337Y-80440727D01*
X159773337Y-80440727D02*
X159092384Y-80440727D01*
X164068575Y-63559774D02*
X164173337Y-63607393D01*
X164173337Y-63607393D02*
X164330480Y-63607393D01*
X164330480Y-63607393D02*
X164487623Y-63559774D01*
X164487623Y-63559774D02*
X164592385Y-63464536D01*
X164592385Y-63464536D02*
X164644766Y-63369298D01*
X164644766Y-63369298D02*
X164697147Y-63178822D01*
X164697147Y-63178822D02*
X164697147Y-63035965D01*
X164697147Y-63035965D02*
X164644766Y-62845489D01*
X164644766Y-62845489D02*
X164592385Y-62750251D01*
X164592385Y-62750251D02*
X164487623Y-62655013D01*
X164487623Y-62655013D02*
X164330480Y-62607393D01*
X164330480Y-62607393D02*
X164225718Y-62607393D01*
X164225718Y-62607393D02*
X164068575Y-62655013D01*
X164068575Y-62655013D02*
X164016194Y-62702632D01*
X164016194Y-62702632D02*
X164016194Y-63035965D01*
X164016194Y-63035965D02*
X164225718Y-63035965D01*
X163544766Y-62607393D02*
X163544766Y-63607393D01*
X163544766Y-63607393D02*
X163125718Y-63607393D01*
X163125718Y-63607393D02*
X163020956Y-63559774D01*
X163020956Y-63559774D02*
X162968575Y-63512155D01*
X162968575Y-63512155D02*
X162916194Y-63416917D01*
X162916194Y-63416917D02*
X162916194Y-63274060D01*
X162916194Y-63274060D02*
X162968575Y-63178822D01*
X162968575Y-63178822D02*
X163020956Y-63131203D01*
X163020956Y-63131203D02*
X163125718Y-63083584D01*
X163125718Y-63083584D02*
X163544766Y-63083584D01*
X162444766Y-62607393D02*
X162444766Y-63607393D01*
X161711432Y-63607393D02*
X161501908Y-63607393D01*
X161501908Y-63607393D02*
X161397146Y-63559774D01*
X161397146Y-63559774D02*
X161292384Y-63464536D01*
X161292384Y-63464536D02*
X161240003Y-63274060D01*
X161240003Y-63274060D02*
X161240003Y-62940727D01*
X161240003Y-62940727D02*
X161292384Y-62750251D01*
X161292384Y-62750251D02*
X161397146Y-62655013D01*
X161397146Y-62655013D02*
X161501908Y-62607393D01*
X161501908Y-62607393D02*
X161711432Y-62607393D01*
X161711432Y-62607393D02*
X161816194Y-62655013D01*
X161816194Y-62655013D02*
X161920956Y-62750251D01*
X161920956Y-62750251D02*
X161973337Y-62940727D01*
X161973337Y-62940727D02*
X161973337Y-63274060D01*
X161973337Y-63274060D02*
X161920956Y-63464536D01*
X161920956Y-63464536D02*
X161816194Y-63559774D01*
X161816194Y-63559774D02*
X161711432Y-63607393D01*
X160192384Y-62607393D02*
X160820956Y-62607393D01*
X160506670Y-62607393D02*
X160506670Y-63607393D01*
X160506670Y-63607393D02*
X160611432Y-63464536D01*
X160611432Y-63464536D02*
X160716194Y-63369298D01*
X160716194Y-63369298D02*
X160820956Y-63321679D01*
X159249527Y-63274060D02*
X159249527Y-62607393D01*
X159511432Y-63655013D02*
X159773337Y-62940727D01*
X159773337Y-62940727D02*
X159092384Y-62940727D01*
X164068575Y-61059774D02*
X164173337Y-61107393D01*
X164173337Y-61107393D02*
X164330480Y-61107393D01*
X164330480Y-61107393D02*
X164487623Y-61059774D01*
X164487623Y-61059774D02*
X164592385Y-60964536D01*
X164592385Y-60964536D02*
X164644766Y-60869298D01*
X164644766Y-60869298D02*
X164697147Y-60678822D01*
X164697147Y-60678822D02*
X164697147Y-60535965D01*
X164697147Y-60535965D02*
X164644766Y-60345489D01*
X164644766Y-60345489D02*
X164592385Y-60250251D01*
X164592385Y-60250251D02*
X164487623Y-60155013D01*
X164487623Y-60155013D02*
X164330480Y-60107393D01*
X164330480Y-60107393D02*
X164225718Y-60107393D01*
X164225718Y-60107393D02*
X164068575Y-60155013D01*
X164068575Y-60155013D02*
X164016194Y-60202632D01*
X164016194Y-60202632D02*
X164016194Y-60535965D01*
X164016194Y-60535965D02*
X164225718Y-60535965D01*
X163544766Y-60107393D02*
X163544766Y-61107393D01*
X163544766Y-61107393D02*
X163125718Y-61107393D01*
X163125718Y-61107393D02*
X163020956Y-61059774D01*
X163020956Y-61059774D02*
X162968575Y-61012155D01*
X162968575Y-61012155D02*
X162916194Y-60916917D01*
X162916194Y-60916917D02*
X162916194Y-60774060D01*
X162916194Y-60774060D02*
X162968575Y-60678822D01*
X162968575Y-60678822D02*
X163020956Y-60631203D01*
X163020956Y-60631203D02*
X163125718Y-60583584D01*
X163125718Y-60583584D02*
X163544766Y-60583584D01*
X162444766Y-60107393D02*
X162444766Y-61107393D01*
X161711432Y-61107393D02*
X161501908Y-61107393D01*
X161501908Y-61107393D02*
X161397146Y-61059774D01*
X161397146Y-61059774D02*
X161292384Y-60964536D01*
X161292384Y-60964536D02*
X161240003Y-60774060D01*
X161240003Y-60774060D02*
X161240003Y-60440727D01*
X161240003Y-60440727D02*
X161292384Y-60250251D01*
X161292384Y-60250251D02*
X161397146Y-60155013D01*
X161397146Y-60155013D02*
X161501908Y-60107393D01*
X161501908Y-60107393D02*
X161711432Y-60107393D01*
X161711432Y-60107393D02*
X161816194Y-60155013D01*
X161816194Y-60155013D02*
X161920956Y-60250251D01*
X161920956Y-60250251D02*
X161973337Y-60440727D01*
X161973337Y-60440727D02*
X161973337Y-60774060D01*
X161973337Y-60774060D02*
X161920956Y-60964536D01*
X161920956Y-60964536D02*
X161816194Y-61059774D01*
X161816194Y-61059774D02*
X161711432Y-61107393D01*
X160192384Y-60107393D02*
X160820956Y-60107393D01*
X160506670Y-60107393D02*
X160506670Y-61107393D01*
X160506670Y-61107393D02*
X160611432Y-60964536D01*
X160611432Y-60964536D02*
X160716194Y-60869298D01*
X160716194Y-60869298D02*
X160820956Y-60821679D01*
X159773337Y-61012155D02*
X159720956Y-61059774D01*
X159720956Y-61059774D02*
X159616194Y-61107393D01*
X159616194Y-61107393D02*
X159354289Y-61107393D01*
X159354289Y-61107393D02*
X159249527Y-61059774D01*
X159249527Y-61059774D02*
X159197146Y-61012155D01*
X159197146Y-61012155D02*
X159144765Y-60916917D01*
X159144765Y-60916917D02*
X159144765Y-60821679D01*
X159144765Y-60821679D02*
X159197146Y-60678822D01*
X159197146Y-60678822D02*
X159825718Y-60107393D01*
X159825718Y-60107393D02*
X159144765Y-60107393D01*
X145568575Y-61059774D02*
X145673337Y-61107393D01*
X145673337Y-61107393D02*
X145830480Y-61107393D01*
X145830480Y-61107393D02*
X145987623Y-61059774D01*
X145987623Y-61059774D02*
X146092385Y-60964536D01*
X146092385Y-60964536D02*
X146144766Y-60869298D01*
X146144766Y-60869298D02*
X146197147Y-60678822D01*
X146197147Y-60678822D02*
X146197147Y-60535965D01*
X146197147Y-60535965D02*
X146144766Y-60345489D01*
X146144766Y-60345489D02*
X146092385Y-60250251D01*
X146092385Y-60250251D02*
X145987623Y-60155013D01*
X145987623Y-60155013D02*
X145830480Y-60107393D01*
X145830480Y-60107393D02*
X145725718Y-60107393D01*
X145725718Y-60107393D02*
X145568575Y-60155013D01*
X145568575Y-60155013D02*
X145516194Y-60202632D01*
X145516194Y-60202632D02*
X145516194Y-60535965D01*
X145516194Y-60535965D02*
X145725718Y-60535965D01*
X145044766Y-60107393D02*
X145044766Y-61107393D01*
X145044766Y-61107393D02*
X144625718Y-61107393D01*
X144625718Y-61107393D02*
X144520956Y-61059774D01*
X144520956Y-61059774D02*
X144468575Y-61012155D01*
X144468575Y-61012155D02*
X144416194Y-60916917D01*
X144416194Y-60916917D02*
X144416194Y-60774060D01*
X144416194Y-60774060D02*
X144468575Y-60678822D01*
X144468575Y-60678822D02*
X144520956Y-60631203D01*
X144520956Y-60631203D02*
X144625718Y-60583584D01*
X144625718Y-60583584D02*
X145044766Y-60583584D01*
X143944766Y-60107393D02*
X143944766Y-61107393D01*
X143211432Y-61107393D02*
X143001908Y-61107393D01*
X143001908Y-61107393D02*
X142897146Y-61059774D01*
X142897146Y-61059774D02*
X142792384Y-60964536D01*
X142792384Y-60964536D02*
X142740003Y-60774060D01*
X142740003Y-60774060D02*
X142740003Y-60440727D01*
X142740003Y-60440727D02*
X142792384Y-60250251D01*
X142792384Y-60250251D02*
X142897146Y-60155013D01*
X142897146Y-60155013D02*
X143001908Y-60107393D01*
X143001908Y-60107393D02*
X143211432Y-60107393D01*
X143211432Y-60107393D02*
X143316194Y-60155013D01*
X143316194Y-60155013D02*
X143420956Y-60250251D01*
X143420956Y-60250251D02*
X143473337Y-60440727D01*
X143473337Y-60440727D02*
X143473337Y-60774060D01*
X143473337Y-60774060D02*
X143420956Y-60964536D01*
X143420956Y-60964536D02*
X143316194Y-61059774D01*
X143316194Y-61059774D02*
X143211432Y-61107393D01*
X142320956Y-61012155D02*
X142268575Y-61059774D01*
X142268575Y-61059774D02*
X142163813Y-61107393D01*
X142163813Y-61107393D02*
X141901908Y-61107393D01*
X141901908Y-61107393D02*
X141797146Y-61059774D01*
X141797146Y-61059774D02*
X141744765Y-61012155D01*
X141744765Y-61012155D02*
X141692384Y-60916917D01*
X141692384Y-60916917D02*
X141692384Y-60821679D01*
X141692384Y-60821679D02*
X141744765Y-60678822D01*
X141744765Y-60678822D02*
X142373337Y-60107393D01*
X142373337Y-60107393D02*
X141692384Y-60107393D01*
X145568575Y-81059774D02*
X145673337Y-81107393D01*
X145673337Y-81107393D02*
X145830480Y-81107393D01*
X145830480Y-81107393D02*
X145987623Y-81059774D01*
X145987623Y-81059774D02*
X146092385Y-80964536D01*
X146092385Y-80964536D02*
X146144766Y-80869298D01*
X146144766Y-80869298D02*
X146197147Y-80678822D01*
X146197147Y-80678822D02*
X146197147Y-80535965D01*
X146197147Y-80535965D02*
X146144766Y-80345489D01*
X146144766Y-80345489D02*
X146092385Y-80250251D01*
X146092385Y-80250251D02*
X145987623Y-80155013D01*
X145987623Y-80155013D02*
X145830480Y-80107393D01*
X145830480Y-80107393D02*
X145725718Y-80107393D01*
X145725718Y-80107393D02*
X145568575Y-80155013D01*
X145568575Y-80155013D02*
X145516194Y-80202632D01*
X145516194Y-80202632D02*
X145516194Y-80535965D01*
X145516194Y-80535965D02*
X145725718Y-80535965D01*
X145044766Y-80107393D02*
X145044766Y-81107393D01*
X145044766Y-81107393D02*
X144625718Y-81107393D01*
X144625718Y-81107393D02*
X144520956Y-81059774D01*
X144520956Y-81059774D02*
X144468575Y-81012155D01*
X144468575Y-81012155D02*
X144416194Y-80916917D01*
X144416194Y-80916917D02*
X144416194Y-80774060D01*
X144416194Y-80774060D02*
X144468575Y-80678822D01*
X144468575Y-80678822D02*
X144520956Y-80631203D01*
X144520956Y-80631203D02*
X144625718Y-80583584D01*
X144625718Y-80583584D02*
X145044766Y-80583584D01*
X143944766Y-80107393D02*
X143944766Y-81107393D01*
X143211432Y-81107393D02*
X143001908Y-81107393D01*
X143001908Y-81107393D02*
X142897146Y-81059774D01*
X142897146Y-81059774D02*
X142792384Y-80964536D01*
X142792384Y-80964536D02*
X142740003Y-80774060D01*
X142740003Y-80774060D02*
X142740003Y-80440727D01*
X142740003Y-80440727D02*
X142792384Y-80250251D01*
X142792384Y-80250251D02*
X142897146Y-80155013D01*
X142897146Y-80155013D02*
X143001908Y-80107393D01*
X143001908Y-80107393D02*
X143211432Y-80107393D01*
X143211432Y-80107393D02*
X143316194Y-80155013D01*
X143316194Y-80155013D02*
X143420956Y-80250251D01*
X143420956Y-80250251D02*
X143473337Y-80440727D01*
X143473337Y-80440727D02*
X143473337Y-80774060D01*
X143473337Y-80774060D02*
X143420956Y-80964536D01*
X143420956Y-80964536D02*
X143316194Y-81059774D01*
X143316194Y-81059774D02*
X143211432Y-81107393D01*
X142373337Y-81107393D02*
X141692384Y-81107393D01*
X141692384Y-81107393D02*
X142059051Y-80726441D01*
X142059051Y-80726441D02*
X141901908Y-80726441D01*
X141901908Y-80726441D02*
X141797146Y-80678822D01*
X141797146Y-80678822D02*
X141744765Y-80631203D01*
X141744765Y-80631203D02*
X141692384Y-80535965D01*
X141692384Y-80535965D02*
X141692384Y-80297870D01*
X141692384Y-80297870D02*
X141744765Y-80202632D01*
X141744765Y-80202632D02*
X141797146Y-80155013D01*
X141797146Y-80155013D02*
X141901908Y-80107393D01*
X141901908Y-80107393D02*
X142216194Y-80107393D01*
X142216194Y-80107393D02*
X142320956Y-80155013D01*
X142320956Y-80155013D02*
X142373337Y-80202632D01*
X164068575Y-58559774D02*
X164173337Y-58607393D01*
X164173337Y-58607393D02*
X164330480Y-58607393D01*
X164330480Y-58607393D02*
X164487623Y-58559774D01*
X164487623Y-58559774D02*
X164592385Y-58464536D01*
X164592385Y-58464536D02*
X164644766Y-58369298D01*
X164644766Y-58369298D02*
X164697147Y-58178822D01*
X164697147Y-58178822D02*
X164697147Y-58035965D01*
X164697147Y-58035965D02*
X164644766Y-57845489D01*
X164644766Y-57845489D02*
X164592385Y-57750251D01*
X164592385Y-57750251D02*
X164487623Y-57655013D01*
X164487623Y-57655013D02*
X164330480Y-57607393D01*
X164330480Y-57607393D02*
X164225718Y-57607393D01*
X164225718Y-57607393D02*
X164068575Y-57655013D01*
X164068575Y-57655013D02*
X164016194Y-57702632D01*
X164016194Y-57702632D02*
X164016194Y-58035965D01*
X164016194Y-58035965D02*
X164225718Y-58035965D01*
X163544766Y-57607393D02*
X163544766Y-58607393D01*
X163544766Y-58607393D02*
X163125718Y-58607393D01*
X163125718Y-58607393D02*
X163020956Y-58559774D01*
X163020956Y-58559774D02*
X162968575Y-58512155D01*
X162968575Y-58512155D02*
X162916194Y-58416917D01*
X162916194Y-58416917D02*
X162916194Y-58274060D01*
X162916194Y-58274060D02*
X162968575Y-58178822D01*
X162968575Y-58178822D02*
X163020956Y-58131203D01*
X163020956Y-58131203D02*
X163125718Y-58083584D01*
X163125718Y-58083584D02*
X163544766Y-58083584D01*
X162444766Y-57607393D02*
X162444766Y-58607393D01*
X161711432Y-58607393D02*
X161501908Y-58607393D01*
X161501908Y-58607393D02*
X161397146Y-58559774D01*
X161397146Y-58559774D02*
X161292384Y-58464536D01*
X161292384Y-58464536D02*
X161240003Y-58274060D01*
X161240003Y-58274060D02*
X161240003Y-57940727D01*
X161240003Y-57940727D02*
X161292384Y-57750251D01*
X161292384Y-57750251D02*
X161397146Y-57655013D01*
X161397146Y-57655013D02*
X161501908Y-57607393D01*
X161501908Y-57607393D02*
X161711432Y-57607393D01*
X161711432Y-57607393D02*
X161816194Y-57655013D01*
X161816194Y-57655013D02*
X161920956Y-57750251D01*
X161920956Y-57750251D02*
X161973337Y-57940727D01*
X161973337Y-57940727D02*
X161973337Y-58274060D01*
X161973337Y-58274060D02*
X161920956Y-58464536D01*
X161920956Y-58464536D02*
X161816194Y-58559774D01*
X161816194Y-58559774D02*
X161711432Y-58607393D01*
X160192384Y-57607393D02*
X160820956Y-57607393D01*
X160506670Y-57607393D02*
X160506670Y-58607393D01*
X160506670Y-58607393D02*
X160611432Y-58464536D01*
X160611432Y-58464536D02*
X160716194Y-58369298D01*
X160716194Y-58369298D02*
X160820956Y-58321679D01*
X159825718Y-58607393D02*
X159144765Y-58607393D01*
X159144765Y-58607393D02*
X159511432Y-58226441D01*
X159511432Y-58226441D02*
X159354289Y-58226441D01*
X159354289Y-58226441D02*
X159249527Y-58178822D01*
X159249527Y-58178822D02*
X159197146Y-58131203D01*
X159197146Y-58131203D02*
X159144765Y-58035965D01*
X159144765Y-58035965D02*
X159144765Y-57797870D01*
X159144765Y-57797870D02*
X159197146Y-57702632D01*
X159197146Y-57702632D02*
X159249527Y-57655013D01*
X159249527Y-57655013D02*
X159354289Y-57607393D01*
X159354289Y-57607393D02*
X159668575Y-57607393D01*
X159668575Y-57607393D02*
X159773337Y-57655013D01*
X159773337Y-57655013D02*
X159825718Y-57702632D01*
X146568575Y-76059774D02*
X146673337Y-76107393D01*
X146673337Y-76107393D02*
X146830480Y-76107393D01*
X146830480Y-76107393D02*
X146987623Y-76059774D01*
X146987623Y-76059774D02*
X147092385Y-75964536D01*
X147092385Y-75964536D02*
X147144766Y-75869298D01*
X147144766Y-75869298D02*
X147197147Y-75678822D01*
X147197147Y-75678822D02*
X147197147Y-75535965D01*
X147197147Y-75535965D02*
X147144766Y-75345489D01*
X147144766Y-75345489D02*
X147092385Y-75250251D01*
X147092385Y-75250251D02*
X146987623Y-75155013D01*
X146987623Y-75155013D02*
X146830480Y-75107393D01*
X146830480Y-75107393D02*
X146725718Y-75107393D01*
X146725718Y-75107393D02*
X146568575Y-75155013D01*
X146568575Y-75155013D02*
X146516194Y-75202632D01*
X146516194Y-75202632D02*
X146516194Y-75535965D01*
X146516194Y-75535965D02*
X146725718Y-75535965D01*
X146044766Y-75107393D02*
X146044766Y-76107393D01*
X146044766Y-76107393D02*
X145625718Y-76107393D01*
X145625718Y-76107393D02*
X145520956Y-76059774D01*
X145520956Y-76059774D02*
X145468575Y-76012155D01*
X145468575Y-76012155D02*
X145416194Y-75916917D01*
X145416194Y-75916917D02*
X145416194Y-75774060D01*
X145416194Y-75774060D02*
X145468575Y-75678822D01*
X145468575Y-75678822D02*
X145520956Y-75631203D01*
X145520956Y-75631203D02*
X145625718Y-75583584D01*
X145625718Y-75583584D02*
X146044766Y-75583584D01*
X144944766Y-75107393D02*
X144944766Y-76107393D01*
X144211432Y-76107393D02*
X144001908Y-76107393D01*
X144001908Y-76107393D02*
X143897146Y-76059774D01*
X143897146Y-76059774D02*
X143792384Y-75964536D01*
X143792384Y-75964536D02*
X143740003Y-75774060D01*
X143740003Y-75774060D02*
X143740003Y-75440727D01*
X143740003Y-75440727D02*
X143792384Y-75250251D01*
X143792384Y-75250251D02*
X143897146Y-75155013D01*
X143897146Y-75155013D02*
X144001908Y-75107393D01*
X144001908Y-75107393D02*
X144211432Y-75107393D01*
X144211432Y-75107393D02*
X144316194Y-75155013D01*
X144316194Y-75155013D02*
X144420956Y-75250251D01*
X144420956Y-75250251D02*
X144473337Y-75440727D01*
X144473337Y-75440727D02*
X144473337Y-75774060D01*
X144473337Y-75774060D02*
X144420956Y-75964536D01*
X144420956Y-75964536D02*
X144316194Y-76059774D01*
X144316194Y-76059774D02*
X144211432Y-76107393D01*
X142692384Y-75107393D02*
X143320956Y-75107393D01*
X143006670Y-75107393D02*
X143006670Y-76107393D01*
X143006670Y-76107393D02*
X143111432Y-75964536D01*
X143111432Y-75964536D02*
X143216194Y-75869298D01*
X143216194Y-75869298D02*
X143320956Y-75821679D01*
X142168575Y-75107393D02*
X141959051Y-75107393D01*
X141959051Y-75107393D02*
X141854289Y-75155013D01*
X141854289Y-75155013D02*
X141801908Y-75202632D01*
X141801908Y-75202632D02*
X141697146Y-75345489D01*
X141697146Y-75345489D02*
X141644765Y-75535965D01*
X141644765Y-75535965D02*
X141644765Y-75916917D01*
X141644765Y-75916917D02*
X141697146Y-76012155D01*
X141697146Y-76012155D02*
X141749527Y-76059774D01*
X141749527Y-76059774D02*
X141854289Y-76107393D01*
X141854289Y-76107393D02*
X142063813Y-76107393D01*
X142063813Y-76107393D02*
X142168575Y-76059774D01*
X142168575Y-76059774D02*
X142220956Y-76012155D01*
X142220956Y-76012155D02*
X142273337Y-75916917D01*
X142273337Y-75916917D02*
X142273337Y-75678822D01*
X142273337Y-75678822D02*
X142220956Y-75583584D01*
X142220956Y-75583584D02*
X142168575Y-75535965D01*
X142168575Y-75535965D02*
X142063813Y-75488346D01*
X142063813Y-75488346D02*
X141854289Y-75488346D01*
X141854289Y-75488346D02*
X141749527Y-75535965D01*
X141749527Y-75535965D02*
X141697146Y-75583584D01*
X141697146Y-75583584D02*
X141644765Y-75678822D01*
X146568575Y-89059774D02*
X146673337Y-89107393D01*
X146673337Y-89107393D02*
X146830480Y-89107393D01*
X146830480Y-89107393D02*
X146987623Y-89059774D01*
X146987623Y-89059774D02*
X147092385Y-88964536D01*
X147092385Y-88964536D02*
X147144766Y-88869298D01*
X147144766Y-88869298D02*
X147197147Y-88678822D01*
X147197147Y-88678822D02*
X147197147Y-88535965D01*
X147197147Y-88535965D02*
X147144766Y-88345489D01*
X147144766Y-88345489D02*
X147092385Y-88250251D01*
X147092385Y-88250251D02*
X146987623Y-88155013D01*
X146987623Y-88155013D02*
X146830480Y-88107393D01*
X146830480Y-88107393D02*
X146725718Y-88107393D01*
X146725718Y-88107393D02*
X146568575Y-88155013D01*
X146568575Y-88155013D02*
X146516194Y-88202632D01*
X146516194Y-88202632D02*
X146516194Y-88535965D01*
X146516194Y-88535965D02*
X146725718Y-88535965D01*
X146044766Y-88107393D02*
X146044766Y-89107393D01*
X146044766Y-89107393D02*
X145625718Y-89107393D01*
X145625718Y-89107393D02*
X145520956Y-89059774D01*
X145520956Y-89059774D02*
X145468575Y-89012155D01*
X145468575Y-89012155D02*
X145416194Y-88916917D01*
X145416194Y-88916917D02*
X145416194Y-88774060D01*
X145416194Y-88774060D02*
X145468575Y-88678822D01*
X145468575Y-88678822D02*
X145520956Y-88631203D01*
X145520956Y-88631203D02*
X145625718Y-88583584D01*
X145625718Y-88583584D02*
X146044766Y-88583584D01*
X144944766Y-88107393D02*
X144944766Y-89107393D01*
X144211432Y-89107393D02*
X144001908Y-89107393D01*
X144001908Y-89107393D02*
X143897146Y-89059774D01*
X143897146Y-89059774D02*
X143792384Y-88964536D01*
X143792384Y-88964536D02*
X143740003Y-88774060D01*
X143740003Y-88774060D02*
X143740003Y-88440727D01*
X143740003Y-88440727D02*
X143792384Y-88250251D01*
X143792384Y-88250251D02*
X143897146Y-88155013D01*
X143897146Y-88155013D02*
X144001908Y-88107393D01*
X144001908Y-88107393D02*
X144211432Y-88107393D01*
X144211432Y-88107393D02*
X144316194Y-88155013D01*
X144316194Y-88155013D02*
X144420956Y-88250251D01*
X144420956Y-88250251D02*
X144473337Y-88440727D01*
X144473337Y-88440727D02*
X144473337Y-88774060D01*
X144473337Y-88774060D02*
X144420956Y-88964536D01*
X144420956Y-88964536D02*
X144316194Y-89059774D01*
X144316194Y-89059774D02*
X144211432Y-89107393D01*
X143320956Y-89012155D02*
X143268575Y-89059774D01*
X143268575Y-89059774D02*
X143163813Y-89107393D01*
X143163813Y-89107393D02*
X142901908Y-89107393D01*
X142901908Y-89107393D02*
X142797146Y-89059774D01*
X142797146Y-89059774D02*
X142744765Y-89012155D01*
X142744765Y-89012155D02*
X142692384Y-88916917D01*
X142692384Y-88916917D02*
X142692384Y-88821679D01*
X142692384Y-88821679D02*
X142744765Y-88678822D01*
X142744765Y-88678822D02*
X143373337Y-88107393D01*
X143373337Y-88107393D02*
X142692384Y-88107393D01*
X142325718Y-89107393D02*
X141644765Y-89107393D01*
X141644765Y-89107393D02*
X142011432Y-88726441D01*
X142011432Y-88726441D02*
X141854289Y-88726441D01*
X141854289Y-88726441D02*
X141749527Y-88678822D01*
X141749527Y-88678822D02*
X141697146Y-88631203D01*
X141697146Y-88631203D02*
X141644765Y-88535965D01*
X141644765Y-88535965D02*
X141644765Y-88297870D01*
X141644765Y-88297870D02*
X141697146Y-88202632D01*
X141697146Y-88202632D02*
X141749527Y-88155013D01*
X141749527Y-88155013D02*
X141854289Y-88107393D01*
X141854289Y-88107393D02*
X142168575Y-88107393D01*
X142168575Y-88107393D02*
X142273337Y-88155013D01*
X142273337Y-88155013D02*
X142325718Y-88202632D01*
X146568575Y-68559774D02*
X146673337Y-68607393D01*
X146673337Y-68607393D02*
X146830480Y-68607393D01*
X146830480Y-68607393D02*
X146987623Y-68559774D01*
X146987623Y-68559774D02*
X147092385Y-68464536D01*
X147092385Y-68464536D02*
X147144766Y-68369298D01*
X147144766Y-68369298D02*
X147197147Y-68178822D01*
X147197147Y-68178822D02*
X147197147Y-68035965D01*
X147197147Y-68035965D02*
X147144766Y-67845489D01*
X147144766Y-67845489D02*
X147092385Y-67750251D01*
X147092385Y-67750251D02*
X146987623Y-67655013D01*
X146987623Y-67655013D02*
X146830480Y-67607393D01*
X146830480Y-67607393D02*
X146725718Y-67607393D01*
X146725718Y-67607393D02*
X146568575Y-67655013D01*
X146568575Y-67655013D02*
X146516194Y-67702632D01*
X146516194Y-67702632D02*
X146516194Y-68035965D01*
X146516194Y-68035965D02*
X146725718Y-68035965D01*
X146044766Y-67607393D02*
X146044766Y-68607393D01*
X146044766Y-68607393D02*
X145625718Y-68607393D01*
X145625718Y-68607393D02*
X145520956Y-68559774D01*
X145520956Y-68559774D02*
X145468575Y-68512155D01*
X145468575Y-68512155D02*
X145416194Y-68416917D01*
X145416194Y-68416917D02*
X145416194Y-68274060D01*
X145416194Y-68274060D02*
X145468575Y-68178822D01*
X145468575Y-68178822D02*
X145520956Y-68131203D01*
X145520956Y-68131203D02*
X145625718Y-68083584D01*
X145625718Y-68083584D02*
X146044766Y-68083584D01*
X144944766Y-67607393D02*
X144944766Y-68607393D01*
X144211432Y-68607393D02*
X144001908Y-68607393D01*
X144001908Y-68607393D02*
X143897146Y-68559774D01*
X143897146Y-68559774D02*
X143792384Y-68464536D01*
X143792384Y-68464536D02*
X143740003Y-68274060D01*
X143740003Y-68274060D02*
X143740003Y-67940727D01*
X143740003Y-67940727D02*
X143792384Y-67750251D01*
X143792384Y-67750251D02*
X143897146Y-67655013D01*
X143897146Y-67655013D02*
X144001908Y-67607393D01*
X144001908Y-67607393D02*
X144211432Y-67607393D01*
X144211432Y-67607393D02*
X144316194Y-67655013D01*
X144316194Y-67655013D02*
X144420956Y-67750251D01*
X144420956Y-67750251D02*
X144473337Y-67940727D01*
X144473337Y-67940727D02*
X144473337Y-68274060D01*
X144473337Y-68274060D02*
X144420956Y-68464536D01*
X144420956Y-68464536D02*
X144316194Y-68559774D01*
X144316194Y-68559774D02*
X144211432Y-68607393D01*
X142692384Y-67607393D02*
X143320956Y-67607393D01*
X143006670Y-67607393D02*
X143006670Y-68607393D01*
X143006670Y-68607393D02*
X143111432Y-68464536D01*
X143111432Y-68464536D02*
X143216194Y-68369298D01*
X143216194Y-68369298D02*
X143320956Y-68321679D01*
X142325718Y-68607393D02*
X141592384Y-68607393D01*
X141592384Y-68607393D02*
X142063813Y-67607393D01*
X164068575Y-83559774D02*
X164173337Y-83607393D01*
X164173337Y-83607393D02*
X164330480Y-83607393D01*
X164330480Y-83607393D02*
X164487623Y-83559774D01*
X164487623Y-83559774D02*
X164592385Y-83464536D01*
X164592385Y-83464536D02*
X164644766Y-83369298D01*
X164644766Y-83369298D02*
X164697147Y-83178822D01*
X164697147Y-83178822D02*
X164697147Y-83035965D01*
X164697147Y-83035965D02*
X164644766Y-82845489D01*
X164644766Y-82845489D02*
X164592385Y-82750251D01*
X164592385Y-82750251D02*
X164487623Y-82655013D01*
X164487623Y-82655013D02*
X164330480Y-82607393D01*
X164330480Y-82607393D02*
X164225718Y-82607393D01*
X164225718Y-82607393D02*
X164068575Y-82655013D01*
X164068575Y-82655013D02*
X164016194Y-82702632D01*
X164016194Y-82702632D02*
X164016194Y-83035965D01*
X164016194Y-83035965D02*
X164225718Y-83035965D01*
X163544766Y-82607393D02*
X163544766Y-83607393D01*
X163544766Y-83607393D02*
X163125718Y-83607393D01*
X163125718Y-83607393D02*
X163020956Y-83559774D01*
X163020956Y-83559774D02*
X162968575Y-83512155D01*
X162968575Y-83512155D02*
X162916194Y-83416917D01*
X162916194Y-83416917D02*
X162916194Y-83274060D01*
X162916194Y-83274060D02*
X162968575Y-83178822D01*
X162968575Y-83178822D02*
X163020956Y-83131203D01*
X163020956Y-83131203D02*
X163125718Y-83083584D01*
X163125718Y-83083584D02*
X163544766Y-83083584D01*
X162444766Y-82607393D02*
X162444766Y-83607393D01*
X161711432Y-83607393D02*
X161501908Y-83607393D01*
X161501908Y-83607393D02*
X161397146Y-83559774D01*
X161397146Y-83559774D02*
X161292384Y-83464536D01*
X161292384Y-83464536D02*
X161240003Y-83274060D01*
X161240003Y-83274060D02*
X161240003Y-82940727D01*
X161240003Y-82940727D02*
X161292384Y-82750251D01*
X161292384Y-82750251D02*
X161397146Y-82655013D01*
X161397146Y-82655013D02*
X161501908Y-82607393D01*
X161501908Y-82607393D02*
X161711432Y-82607393D01*
X161711432Y-82607393D02*
X161816194Y-82655013D01*
X161816194Y-82655013D02*
X161920956Y-82750251D01*
X161920956Y-82750251D02*
X161973337Y-82940727D01*
X161973337Y-82940727D02*
X161973337Y-83274060D01*
X161973337Y-83274060D02*
X161920956Y-83464536D01*
X161920956Y-83464536D02*
X161816194Y-83559774D01*
X161816194Y-83559774D02*
X161711432Y-83607393D01*
X160873337Y-83607393D02*
X160192384Y-83607393D01*
X160192384Y-83607393D02*
X160559051Y-83226441D01*
X160559051Y-83226441D02*
X160401908Y-83226441D01*
X160401908Y-83226441D02*
X160297146Y-83178822D01*
X160297146Y-83178822D02*
X160244765Y-83131203D01*
X160244765Y-83131203D02*
X160192384Y-83035965D01*
X160192384Y-83035965D02*
X160192384Y-82797870D01*
X160192384Y-82797870D02*
X160244765Y-82702632D01*
X160244765Y-82702632D02*
X160297146Y-82655013D01*
X160297146Y-82655013D02*
X160401908Y-82607393D01*
X160401908Y-82607393D02*
X160716194Y-82607393D01*
X160716194Y-82607393D02*
X160820956Y-82655013D01*
X160820956Y-82655013D02*
X160873337Y-82702632D01*
X159668575Y-82607393D02*
X159459051Y-82607393D01*
X159459051Y-82607393D02*
X159354289Y-82655013D01*
X159354289Y-82655013D02*
X159301908Y-82702632D01*
X159301908Y-82702632D02*
X159197146Y-82845489D01*
X159197146Y-82845489D02*
X159144765Y-83035965D01*
X159144765Y-83035965D02*
X159144765Y-83416917D01*
X159144765Y-83416917D02*
X159197146Y-83512155D01*
X159197146Y-83512155D02*
X159249527Y-83559774D01*
X159249527Y-83559774D02*
X159354289Y-83607393D01*
X159354289Y-83607393D02*
X159563813Y-83607393D01*
X159563813Y-83607393D02*
X159668575Y-83559774D01*
X159668575Y-83559774D02*
X159720956Y-83512155D01*
X159720956Y-83512155D02*
X159773337Y-83416917D01*
X159773337Y-83416917D02*
X159773337Y-83178822D01*
X159773337Y-83178822D02*
X159720956Y-83083584D01*
X159720956Y-83083584D02*
X159668575Y-83035965D01*
X159668575Y-83035965D02*
X159563813Y-82988346D01*
X159563813Y-82988346D02*
X159354289Y-82988346D01*
X159354289Y-82988346D02*
X159249527Y-83035965D01*
X159249527Y-83035965D02*
X159197146Y-83083584D01*
X159197146Y-83083584D02*
X159144765Y-83178822D01*
X146568575Y-66059774D02*
X146673337Y-66107393D01*
X146673337Y-66107393D02*
X146830480Y-66107393D01*
X146830480Y-66107393D02*
X146987623Y-66059774D01*
X146987623Y-66059774D02*
X147092385Y-65964536D01*
X147092385Y-65964536D02*
X147144766Y-65869298D01*
X147144766Y-65869298D02*
X147197147Y-65678822D01*
X147197147Y-65678822D02*
X147197147Y-65535965D01*
X147197147Y-65535965D02*
X147144766Y-65345489D01*
X147144766Y-65345489D02*
X147092385Y-65250251D01*
X147092385Y-65250251D02*
X146987623Y-65155013D01*
X146987623Y-65155013D02*
X146830480Y-65107393D01*
X146830480Y-65107393D02*
X146725718Y-65107393D01*
X146725718Y-65107393D02*
X146568575Y-65155013D01*
X146568575Y-65155013D02*
X146516194Y-65202632D01*
X146516194Y-65202632D02*
X146516194Y-65535965D01*
X146516194Y-65535965D02*
X146725718Y-65535965D01*
X146044766Y-65107393D02*
X146044766Y-66107393D01*
X146044766Y-66107393D02*
X145625718Y-66107393D01*
X145625718Y-66107393D02*
X145520956Y-66059774D01*
X145520956Y-66059774D02*
X145468575Y-66012155D01*
X145468575Y-66012155D02*
X145416194Y-65916917D01*
X145416194Y-65916917D02*
X145416194Y-65774060D01*
X145416194Y-65774060D02*
X145468575Y-65678822D01*
X145468575Y-65678822D02*
X145520956Y-65631203D01*
X145520956Y-65631203D02*
X145625718Y-65583584D01*
X145625718Y-65583584D02*
X146044766Y-65583584D01*
X144944766Y-65107393D02*
X144944766Y-66107393D01*
X144211432Y-66107393D02*
X144001908Y-66107393D01*
X144001908Y-66107393D02*
X143897146Y-66059774D01*
X143897146Y-66059774D02*
X143792384Y-65964536D01*
X143792384Y-65964536D02*
X143740003Y-65774060D01*
X143740003Y-65774060D02*
X143740003Y-65440727D01*
X143740003Y-65440727D02*
X143792384Y-65250251D01*
X143792384Y-65250251D02*
X143897146Y-65155013D01*
X143897146Y-65155013D02*
X144001908Y-65107393D01*
X144001908Y-65107393D02*
X144211432Y-65107393D01*
X144211432Y-65107393D02*
X144316194Y-65155013D01*
X144316194Y-65155013D02*
X144420956Y-65250251D01*
X144420956Y-65250251D02*
X144473337Y-65440727D01*
X144473337Y-65440727D02*
X144473337Y-65774060D01*
X144473337Y-65774060D02*
X144420956Y-65964536D01*
X144420956Y-65964536D02*
X144316194Y-66059774D01*
X144316194Y-66059774D02*
X144211432Y-66107393D01*
X142692384Y-65107393D02*
X143320956Y-65107393D01*
X143006670Y-65107393D02*
X143006670Y-66107393D01*
X143006670Y-66107393D02*
X143111432Y-65964536D01*
X143111432Y-65964536D02*
X143216194Y-65869298D01*
X143216194Y-65869298D02*
X143320956Y-65821679D01*
X141749527Y-66107393D02*
X141959051Y-66107393D01*
X141959051Y-66107393D02*
X142063813Y-66059774D01*
X142063813Y-66059774D02*
X142116194Y-66012155D01*
X142116194Y-66012155D02*
X142220956Y-65869298D01*
X142220956Y-65869298D02*
X142273337Y-65678822D01*
X142273337Y-65678822D02*
X142273337Y-65297870D01*
X142273337Y-65297870D02*
X142220956Y-65202632D01*
X142220956Y-65202632D02*
X142168575Y-65155013D01*
X142168575Y-65155013D02*
X142063813Y-65107393D01*
X142063813Y-65107393D02*
X141854289Y-65107393D01*
X141854289Y-65107393D02*
X141749527Y-65155013D01*
X141749527Y-65155013D02*
X141697146Y-65202632D01*
X141697146Y-65202632D02*
X141644765Y-65297870D01*
X141644765Y-65297870D02*
X141644765Y-65535965D01*
X141644765Y-65535965D02*
X141697146Y-65631203D01*
X141697146Y-65631203D02*
X141749527Y-65678822D01*
X141749527Y-65678822D02*
X141854289Y-65726441D01*
X141854289Y-65726441D02*
X142063813Y-65726441D01*
X142063813Y-65726441D02*
X142168575Y-65678822D01*
X142168575Y-65678822D02*
X142220956Y-65631203D01*
X142220956Y-65631203D02*
X142273337Y-65535965D01*
X164068575Y-66059774D02*
X164173337Y-66107393D01*
X164173337Y-66107393D02*
X164330480Y-66107393D01*
X164330480Y-66107393D02*
X164487623Y-66059774D01*
X164487623Y-66059774D02*
X164592385Y-65964536D01*
X164592385Y-65964536D02*
X164644766Y-65869298D01*
X164644766Y-65869298D02*
X164697147Y-65678822D01*
X164697147Y-65678822D02*
X164697147Y-65535965D01*
X164697147Y-65535965D02*
X164644766Y-65345489D01*
X164644766Y-65345489D02*
X164592385Y-65250251D01*
X164592385Y-65250251D02*
X164487623Y-65155013D01*
X164487623Y-65155013D02*
X164330480Y-65107393D01*
X164330480Y-65107393D02*
X164225718Y-65107393D01*
X164225718Y-65107393D02*
X164068575Y-65155013D01*
X164068575Y-65155013D02*
X164016194Y-65202632D01*
X164016194Y-65202632D02*
X164016194Y-65535965D01*
X164016194Y-65535965D02*
X164225718Y-65535965D01*
X163544766Y-65107393D02*
X163544766Y-66107393D01*
X163544766Y-66107393D02*
X163125718Y-66107393D01*
X163125718Y-66107393D02*
X163020956Y-66059774D01*
X163020956Y-66059774D02*
X162968575Y-66012155D01*
X162968575Y-66012155D02*
X162916194Y-65916917D01*
X162916194Y-65916917D02*
X162916194Y-65774060D01*
X162916194Y-65774060D02*
X162968575Y-65678822D01*
X162968575Y-65678822D02*
X163020956Y-65631203D01*
X163020956Y-65631203D02*
X163125718Y-65583584D01*
X163125718Y-65583584D02*
X163544766Y-65583584D01*
X162444766Y-65107393D02*
X162444766Y-66107393D01*
X161711432Y-66107393D02*
X161501908Y-66107393D01*
X161501908Y-66107393D02*
X161397146Y-66059774D01*
X161397146Y-66059774D02*
X161292384Y-65964536D01*
X161292384Y-65964536D02*
X161240003Y-65774060D01*
X161240003Y-65774060D02*
X161240003Y-65440727D01*
X161240003Y-65440727D02*
X161292384Y-65250251D01*
X161292384Y-65250251D02*
X161397146Y-65155013D01*
X161397146Y-65155013D02*
X161501908Y-65107393D01*
X161501908Y-65107393D02*
X161711432Y-65107393D01*
X161711432Y-65107393D02*
X161816194Y-65155013D01*
X161816194Y-65155013D02*
X161920956Y-65250251D01*
X161920956Y-65250251D02*
X161973337Y-65440727D01*
X161973337Y-65440727D02*
X161973337Y-65774060D01*
X161973337Y-65774060D02*
X161920956Y-65964536D01*
X161920956Y-65964536D02*
X161816194Y-66059774D01*
X161816194Y-66059774D02*
X161711432Y-66107393D01*
X160820956Y-66012155D02*
X160768575Y-66059774D01*
X160768575Y-66059774D02*
X160663813Y-66107393D01*
X160663813Y-66107393D02*
X160401908Y-66107393D01*
X160401908Y-66107393D02*
X160297146Y-66059774D01*
X160297146Y-66059774D02*
X160244765Y-66012155D01*
X160244765Y-66012155D02*
X160192384Y-65916917D01*
X160192384Y-65916917D02*
X160192384Y-65821679D01*
X160192384Y-65821679D02*
X160244765Y-65678822D01*
X160244765Y-65678822D02*
X160873337Y-65107393D01*
X160873337Y-65107393D02*
X160192384Y-65107393D01*
X159825718Y-66107393D02*
X159092384Y-66107393D01*
X159092384Y-66107393D02*
X159563813Y-65107393D01*
X145568575Y-84059774D02*
X145673337Y-84107393D01*
X145673337Y-84107393D02*
X145830480Y-84107393D01*
X145830480Y-84107393D02*
X145987623Y-84059774D01*
X145987623Y-84059774D02*
X146092385Y-83964536D01*
X146092385Y-83964536D02*
X146144766Y-83869298D01*
X146144766Y-83869298D02*
X146197147Y-83678822D01*
X146197147Y-83678822D02*
X146197147Y-83535965D01*
X146197147Y-83535965D02*
X146144766Y-83345489D01*
X146144766Y-83345489D02*
X146092385Y-83250251D01*
X146092385Y-83250251D02*
X145987623Y-83155013D01*
X145987623Y-83155013D02*
X145830480Y-83107393D01*
X145830480Y-83107393D02*
X145725718Y-83107393D01*
X145725718Y-83107393D02*
X145568575Y-83155013D01*
X145568575Y-83155013D02*
X145516194Y-83202632D01*
X145516194Y-83202632D02*
X145516194Y-83535965D01*
X145516194Y-83535965D02*
X145725718Y-83535965D01*
X145044766Y-83107393D02*
X145044766Y-84107393D01*
X145044766Y-84107393D02*
X144625718Y-84107393D01*
X144625718Y-84107393D02*
X144520956Y-84059774D01*
X144520956Y-84059774D02*
X144468575Y-84012155D01*
X144468575Y-84012155D02*
X144416194Y-83916917D01*
X144416194Y-83916917D02*
X144416194Y-83774060D01*
X144416194Y-83774060D02*
X144468575Y-83678822D01*
X144468575Y-83678822D02*
X144520956Y-83631203D01*
X144520956Y-83631203D02*
X144625718Y-83583584D01*
X144625718Y-83583584D02*
X145044766Y-83583584D01*
X143944766Y-83107393D02*
X143944766Y-84107393D01*
X143211432Y-84107393D02*
X143001908Y-84107393D01*
X143001908Y-84107393D02*
X142897146Y-84059774D01*
X142897146Y-84059774D02*
X142792384Y-83964536D01*
X142792384Y-83964536D02*
X142740003Y-83774060D01*
X142740003Y-83774060D02*
X142740003Y-83440727D01*
X142740003Y-83440727D02*
X142792384Y-83250251D01*
X142792384Y-83250251D02*
X142897146Y-83155013D01*
X142897146Y-83155013D02*
X143001908Y-83107393D01*
X143001908Y-83107393D02*
X143211432Y-83107393D01*
X143211432Y-83107393D02*
X143316194Y-83155013D01*
X143316194Y-83155013D02*
X143420956Y-83250251D01*
X143420956Y-83250251D02*
X143473337Y-83440727D01*
X143473337Y-83440727D02*
X143473337Y-83774060D01*
X143473337Y-83774060D02*
X143420956Y-83964536D01*
X143420956Y-83964536D02*
X143316194Y-84059774D01*
X143316194Y-84059774D02*
X143211432Y-84107393D01*
X141692384Y-83107393D02*
X142320956Y-83107393D01*
X142006670Y-83107393D02*
X142006670Y-84107393D01*
X142006670Y-84107393D02*
X142111432Y-83964536D01*
X142111432Y-83964536D02*
X142216194Y-83869298D01*
X142216194Y-83869298D02*
X142320956Y-83821679D01*
X145568575Y-63559774D02*
X145673337Y-63607393D01*
X145673337Y-63607393D02*
X145830480Y-63607393D01*
X145830480Y-63607393D02*
X145987623Y-63559774D01*
X145987623Y-63559774D02*
X146092385Y-63464536D01*
X146092385Y-63464536D02*
X146144766Y-63369298D01*
X146144766Y-63369298D02*
X146197147Y-63178822D01*
X146197147Y-63178822D02*
X146197147Y-63035965D01*
X146197147Y-63035965D02*
X146144766Y-62845489D01*
X146144766Y-62845489D02*
X146092385Y-62750251D01*
X146092385Y-62750251D02*
X145987623Y-62655013D01*
X145987623Y-62655013D02*
X145830480Y-62607393D01*
X145830480Y-62607393D02*
X145725718Y-62607393D01*
X145725718Y-62607393D02*
X145568575Y-62655013D01*
X145568575Y-62655013D02*
X145516194Y-62702632D01*
X145516194Y-62702632D02*
X145516194Y-63035965D01*
X145516194Y-63035965D02*
X145725718Y-63035965D01*
X145044766Y-62607393D02*
X145044766Y-63607393D01*
X145044766Y-63607393D02*
X144625718Y-63607393D01*
X144625718Y-63607393D02*
X144520956Y-63559774D01*
X144520956Y-63559774D02*
X144468575Y-63512155D01*
X144468575Y-63512155D02*
X144416194Y-63416917D01*
X144416194Y-63416917D02*
X144416194Y-63274060D01*
X144416194Y-63274060D02*
X144468575Y-63178822D01*
X144468575Y-63178822D02*
X144520956Y-63131203D01*
X144520956Y-63131203D02*
X144625718Y-63083584D01*
X144625718Y-63083584D02*
X145044766Y-63083584D01*
X143944766Y-62607393D02*
X143944766Y-63607393D01*
X143211432Y-63607393D02*
X143001908Y-63607393D01*
X143001908Y-63607393D02*
X142897146Y-63559774D01*
X142897146Y-63559774D02*
X142792384Y-63464536D01*
X142792384Y-63464536D02*
X142740003Y-63274060D01*
X142740003Y-63274060D02*
X142740003Y-62940727D01*
X142740003Y-62940727D02*
X142792384Y-62750251D01*
X142792384Y-62750251D02*
X142897146Y-62655013D01*
X142897146Y-62655013D02*
X143001908Y-62607393D01*
X143001908Y-62607393D02*
X143211432Y-62607393D01*
X143211432Y-62607393D02*
X143316194Y-62655013D01*
X143316194Y-62655013D02*
X143420956Y-62750251D01*
X143420956Y-62750251D02*
X143473337Y-62940727D01*
X143473337Y-62940727D02*
X143473337Y-63274060D01*
X143473337Y-63274060D02*
X143420956Y-63464536D01*
X143420956Y-63464536D02*
X143316194Y-63559774D01*
X143316194Y-63559774D02*
X143211432Y-63607393D01*
X141797146Y-63274060D02*
X141797146Y-62607393D01*
X142059051Y-63655013D02*
X142320956Y-62940727D01*
X142320956Y-62940727D02*
X141640003Y-62940727D01*
X164068575Y-68559774D02*
X164173337Y-68607393D01*
X164173337Y-68607393D02*
X164330480Y-68607393D01*
X164330480Y-68607393D02*
X164487623Y-68559774D01*
X164487623Y-68559774D02*
X164592385Y-68464536D01*
X164592385Y-68464536D02*
X164644766Y-68369298D01*
X164644766Y-68369298D02*
X164697147Y-68178822D01*
X164697147Y-68178822D02*
X164697147Y-68035965D01*
X164697147Y-68035965D02*
X164644766Y-67845489D01*
X164644766Y-67845489D02*
X164592385Y-67750251D01*
X164592385Y-67750251D02*
X164487623Y-67655013D01*
X164487623Y-67655013D02*
X164330480Y-67607393D01*
X164330480Y-67607393D02*
X164225718Y-67607393D01*
X164225718Y-67607393D02*
X164068575Y-67655013D01*
X164068575Y-67655013D02*
X164016194Y-67702632D01*
X164016194Y-67702632D02*
X164016194Y-68035965D01*
X164016194Y-68035965D02*
X164225718Y-68035965D01*
X163544766Y-67607393D02*
X163544766Y-68607393D01*
X163544766Y-68607393D02*
X163125718Y-68607393D01*
X163125718Y-68607393D02*
X163020956Y-68559774D01*
X163020956Y-68559774D02*
X162968575Y-68512155D01*
X162968575Y-68512155D02*
X162916194Y-68416917D01*
X162916194Y-68416917D02*
X162916194Y-68274060D01*
X162916194Y-68274060D02*
X162968575Y-68178822D01*
X162968575Y-68178822D02*
X163020956Y-68131203D01*
X163020956Y-68131203D02*
X163125718Y-68083584D01*
X163125718Y-68083584D02*
X163544766Y-68083584D01*
X162444766Y-67607393D02*
X162444766Y-68607393D01*
X161711432Y-68607393D02*
X161501908Y-68607393D01*
X161501908Y-68607393D02*
X161397146Y-68559774D01*
X161397146Y-68559774D02*
X161292384Y-68464536D01*
X161292384Y-68464536D02*
X161240003Y-68274060D01*
X161240003Y-68274060D02*
X161240003Y-67940727D01*
X161240003Y-67940727D02*
X161292384Y-67750251D01*
X161292384Y-67750251D02*
X161397146Y-67655013D01*
X161397146Y-67655013D02*
X161501908Y-67607393D01*
X161501908Y-67607393D02*
X161711432Y-67607393D01*
X161711432Y-67607393D02*
X161816194Y-67655013D01*
X161816194Y-67655013D02*
X161920956Y-67750251D01*
X161920956Y-67750251D02*
X161973337Y-67940727D01*
X161973337Y-67940727D02*
X161973337Y-68274060D01*
X161973337Y-68274060D02*
X161920956Y-68464536D01*
X161920956Y-68464536D02*
X161816194Y-68559774D01*
X161816194Y-68559774D02*
X161711432Y-68607393D01*
X160820956Y-68512155D02*
X160768575Y-68559774D01*
X160768575Y-68559774D02*
X160663813Y-68607393D01*
X160663813Y-68607393D02*
X160401908Y-68607393D01*
X160401908Y-68607393D02*
X160297146Y-68559774D01*
X160297146Y-68559774D02*
X160244765Y-68512155D01*
X160244765Y-68512155D02*
X160192384Y-68416917D01*
X160192384Y-68416917D02*
X160192384Y-68321679D01*
X160192384Y-68321679D02*
X160244765Y-68178822D01*
X160244765Y-68178822D02*
X160873337Y-67607393D01*
X160873337Y-67607393D02*
X160192384Y-67607393D01*
X159249527Y-68607393D02*
X159459051Y-68607393D01*
X159459051Y-68607393D02*
X159563813Y-68559774D01*
X159563813Y-68559774D02*
X159616194Y-68512155D01*
X159616194Y-68512155D02*
X159720956Y-68369298D01*
X159720956Y-68369298D02*
X159773337Y-68178822D01*
X159773337Y-68178822D02*
X159773337Y-67797870D01*
X159773337Y-67797870D02*
X159720956Y-67702632D01*
X159720956Y-67702632D02*
X159668575Y-67655013D01*
X159668575Y-67655013D02*
X159563813Y-67607393D01*
X159563813Y-67607393D02*
X159354289Y-67607393D01*
X159354289Y-67607393D02*
X159249527Y-67655013D01*
X159249527Y-67655013D02*
X159197146Y-67702632D01*
X159197146Y-67702632D02*
X159144765Y-67797870D01*
X159144765Y-67797870D02*
X159144765Y-68035965D01*
X159144765Y-68035965D02*
X159197146Y-68131203D01*
X159197146Y-68131203D02*
X159249527Y-68178822D01*
X159249527Y-68178822D02*
X159354289Y-68226441D01*
X159354289Y-68226441D02*
X159563813Y-68226441D01*
X159563813Y-68226441D02*
X159668575Y-68178822D01*
X159668575Y-68178822D02*
X159720956Y-68131203D01*
X159720956Y-68131203D02*
X159773337Y-68035965D01*
X144068575Y-56059774D02*
X144173337Y-56107393D01*
X144173337Y-56107393D02*
X144330480Y-56107393D01*
X144330480Y-56107393D02*
X144487623Y-56059774D01*
X144487623Y-56059774D02*
X144592385Y-55964536D01*
X144592385Y-55964536D02*
X144644766Y-55869298D01*
X144644766Y-55869298D02*
X144697147Y-55678822D01*
X144697147Y-55678822D02*
X144697147Y-55535965D01*
X144697147Y-55535965D02*
X144644766Y-55345489D01*
X144644766Y-55345489D02*
X144592385Y-55250251D01*
X144592385Y-55250251D02*
X144487623Y-55155013D01*
X144487623Y-55155013D02*
X144330480Y-55107393D01*
X144330480Y-55107393D02*
X144225718Y-55107393D01*
X144225718Y-55107393D02*
X144068575Y-55155013D01*
X144068575Y-55155013D02*
X144016194Y-55202632D01*
X144016194Y-55202632D02*
X144016194Y-55535965D01*
X144016194Y-55535965D02*
X144225718Y-55535965D01*
X143544766Y-55107393D02*
X143544766Y-56107393D01*
X143544766Y-56107393D02*
X142916194Y-55107393D01*
X142916194Y-55107393D02*
X142916194Y-56107393D01*
X142392385Y-55107393D02*
X142392385Y-56107393D01*
X142392385Y-56107393D02*
X142130480Y-56107393D01*
X142130480Y-56107393D02*
X141973337Y-56059774D01*
X141973337Y-56059774D02*
X141868575Y-55964536D01*
X141868575Y-55964536D02*
X141816194Y-55869298D01*
X141816194Y-55869298D02*
X141763813Y-55678822D01*
X141763813Y-55678822D02*
X141763813Y-55535965D01*
X141763813Y-55535965D02*
X141816194Y-55345489D01*
X141816194Y-55345489D02*
X141868575Y-55250251D01*
X141868575Y-55250251D02*
X141973337Y-55155013D01*
X141973337Y-55155013D02*
X142130480Y-55107393D01*
X142130480Y-55107393D02*
X142392385Y-55107393D01*
X164068575Y-86059774D02*
X164173337Y-86107393D01*
X164173337Y-86107393D02*
X164330480Y-86107393D01*
X164330480Y-86107393D02*
X164487623Y-86059774D01*
X164487623Y-86059774D02*
X164592385Y-85964536D01*
X164592385Y-85964536D02*
X164644766Y-85869298D01*
X164644766Y-85869298D02*
X164697147Y-85678822D01*
X164697147Y-85678822D02*
X164697147Y-85535965D01*
X164697147Y-85535965D02*
X164644766Y-85345489D01*
X164644766Y-85345489D02*
X164592385Y-85250251D01*
X164592385Y-85250251D02*
X164487623Y-85155013D01*
X164487623Y-85155013D02*
X164330480Y-85107393D01*
X164330480Y-85107393D02*
X164225718Y-85107393D01*
X164225718Y-85107393D02*
X164068575Y-85155013D01*
X164068575Y-85155013D02*
X164016194Y-85202632D01*
X164016194Y-85202632D02*
X164016194Y-85535965D01*
X164016194Y-85535965D02*
X164225718Y-85535965D01*
X163544766Y-85107393D02*
X163544766Y-86107393D01*
X163544766Y-86107393D02*
X163125718Y-86107393D01*
X163125718Y-86107393D02*
X163020956Y-86059774D01*
X163020956Y-86059774D02*
X162968575Y-86012155D01*
X162968575Y-86012155D02*
X162916194Y-85916917D01*
X162916194Y-85916917D02*
X162916194Y-85774060D01*
X162916194Y-85774060D02*
X162968575Y-85678822D01*
X162968575Y-85678822D02*
X163020956Y-85631203D01*
X163020956Y-85631203D02*
X163125718Y-85583584D01*
X163125718Y-85583584D02*
X163544766Y-85583584D01*
X162444766Y-85107393D02*
X162444766Y-86107393D01*
X161711432Y-86107393D02*
X161501908Y-86107393D01*
X161501908Y-86107393D02*
X161397146Y-86059774D01*
X161397146Y-86059774D02*
X161292384Y-85964536D01*
X161292384Y-85964536D02*
X161240003Y-85774060D01*
X161240003Y-85774060D02*
X161240003Y-85440727D01*
X161240003Y-85440727D02*
X161292384Y-85250251D01*
X161292384Y-85250251D02*
X161397146Y-85155013D01*
X161397146Y-85155013D02*
X161501908Y-85107393D01*
X161501908Y-85107393D02*
X161711432Y-85107393D01*
X161711432Y-85107393D02*
X161816194Y-85155013D01*
X161816194Y-85155013D02*
X161920956Y-85250251D01*
X161920956Y-85250251D02*
X161973337Y-85440727D01*
X161973337Y-85440727D02*
X161973337Y-85774060D01*
X161973337Y-85774060D02*
X161920956Y-85964536D01*
X161920956Y-85964536D02*
X161816194Y-86059774D01*
X161816194Y-86059774D02*
X161711432Y-86107393D01*
X160873337Y-86107393D02*
X160192384Y-86107393D01*
X160192384Y-86107393D02*
X160559051Y-85726441D01*
X160559051Y-85726441D02*
X160401908Y-85726441D01*
X160401908Y-85726441D02*
X160297146Y-85678822D01*
X160297146Y-85678822D02*
X160244765Y-85631203D01*
X160244765Y-85631203D02*
X160192384Y-85535965D01*
X160192384Y-85535965D02*
X160192384Y-85297870D01*
X160192384Y-85297870D02*
X160244765Y-85202632D01*
X160244765Y-85202632D02*
X160297146Y-85155013D01*
X160297146Y-85155013D02*
X160401908Y-85107393D01*
X160401908Y-85107393D02*
X160716194Y-85107393D01*
X160716194Y-85107393D02*
X160820956Y-85155013D01*
X160820956Y-85155013D02*
X160873337Y-85202632D01*
X159249527Y-86107393D02*
X159459051Y-86107393D01*
X159459051Y-86107393D02*
X159563813Y-86059774D01*
X159563813Y-86059774D02*
X159616194Y-86012155D01*
X159616194Y-86012155D02*
X159720956Y-85869298D01*
X159720956Y-85869298D02*
X159773337Y-85678822D01*
X159773337Y-85678822D02*
X159773337Y-85297870D01*
X159773337Y-85297870D02*
X159720956Y-85202632D01*
X159720956Y-85202632D02*
X159668575Y-85155013D01*
X159668575Y-85155013D02*
X159563813Y-85107393D01*
X159563813Y-85107393D02*
X159354289Y-85107393D01*
X159354289Y-85107393D02*
X159249527Y-85155013D01*
X159249527Y-85155013D02*
X159197146Y-85202632D01*
X159197146Y-85202632D02*
X159144765Y-85297870D01*
X159144765Y-85297870D02*
X159144765Y-85535965D01*
X159144765Y-85535965D02*
X159197146Y-85631203D01*
X159197146Y-85631203D02*
X159249527Y-85678822D01*
X159249527Y-85678822D02*
X159354289Y-85726441D01*
X159354289Y-85726441D02*
X159563813Y-85726441D01*
X159563813Y-85726441D02*
X159668575Y-85678822D01*
X159668575Y-85678822D02*
X159720956Y-85631203D01*
X159720956Y-85631203D02*
X159773337Y-85535965D01*
X154168575Y-46607393D02*
X154168575Y-45797870D01*
X154168575Y-45797870D02*
X154120956Y-45702632D01*
X154120956Y-45702632D02*
X154073337Y-45655013D01*
X154073337Y-45655013D02*
X153978099Y-45607393D01*
X153978099Y-45607393D02*
X153787623Y-45607393D01*
X153787623Y-45607393D02*
X153692385Y-45655013D01*
X153692385Y-45655013D02*
X153644766Y-45702632D01*
X153644766Y-45702632D02*
X153597147Y-45797870D01*
X153597147Y-45797870D02*
X153597147Y-46607393D01*
X153168575Y-45655013D02*
X153025718Y-45607393D01*
X153025718Y-45607393D02*
X152787623Y-45607393D01*
X152787623Y-45607393D02*
X152692385Y-45655013D01*
X152692385Y-45655013D02*
X152644766Y-45702632D01*
X152644766Y-45702632D02*
X152597147Y-45797870D01*
X152597147Y-45797870D02*
X152597147Y-45893108D01*
X152597147Y-45893108D02*
X152644766Y-45988346D01*
X152644766Y-45988346D02*
X152692385Y-46035965D01*
X152692385Y-46035965D02*
X152787623Y-46083584D01*
X152787623Y-46083584D02*
X152978099Y-46131203D01*
X152978099Y-46131203D02*
X153073337Y-46178822D01*
X153073337Y-46178822D02*
X153120956Y-46226441D01*
X153120956Y-46226441D02*
X153168575Y-46321679D01*
X153168575Y-46321679D02*
X153168575Y-46416917D01*
X153168575Y-46416917D02*
X153120956Y-46512155D01*
X153120956Y-46512155D02*
X153073337Y-46559774D01*
X153073337Y-46559774D02*
X152978099Y-46607393D01*
X152978099Y-46607393D02*
X152740004Y-46607393D01*
X152740004Y-46607393D02*
X152597147Y-46559774D01*
X151835242Y-46131203D02*
X151692385Y-46083584D01*
X151692385Y-46083584D02*
X151644766Y-46035965D01*
X151644766Y-46035965D02*
X151597147Y-45940727D01*
X151597147Y-45940727D02*
X151597147Y-45797870D01*
X151597147Y-45797870D02*
X151644766Y-45702632D01*
X151644766Y-45702632D02*
X151692385Y-45655013D01*
X151692385Y-45655013D02*
X151787623Y-45607393D01*
X151787623Y-45607393D02*
X152168575Y-45607393D01*
X152168575Y-45607393D02*
X152168575Y-46607393D01*
X152168575Y-46607393D02*
X151835242Y-46607393D01*
X151835242Y-46607393D02*
X151740004Y-46559774D01*
X151740004Y-46559774D02*
X151692385Y-46512155D01*
X151692385Y-46512155D02*
X151644766Y-46416917D01*
X151644766Y-46416917D02*
X151644766Y-46321679D01*
X151644766Y-46321679D02*
X151692385Y-46226441D01*
X151692385Y-46226441D02*
X151740004Y-46178822D01*
X151740004Y-46178822D02*
X151835242Y-46131203D01*
X151835242Y-46131203D02*
X152168575Y-46131203D01*
X164068575Y-71059774D02*
X164173337Y-71107393D01*
X164173337Y-71107393D02*
X164330480Y-71107393D01*
X164330480Y-71107393D02*
X164487623Y-71059774D01*
X164487623Y-71059774D02*
X164592385Y-70964536D01*
X164592385Y-70964536D02*
X164644766Y-70869298D01*
X164644766Y-70869298D02*
X164697147Y-70678822D01*
X164697147Y-70678822D02*
X164697147Y-70535965D01*
X164697147Y-70535965D02*
X164644766Y-70345489D01*
X164644766Y-70345489D02*
X164592385Y-70250251D01*
X164592385Y-70250251D02*
X164487623Y-70155013D01*
X164487623Y-70155013D02*
X164330480Y-70107393D01*
X164330480Y-70107393D02*
X164225718Y-70107393D01*
X164225718Y-70107393D02*
X164068575Y-70155013D01*
X164068575Y-70155013D02*
X164016194Y-70202632D01*
X164016194Y-70202632D02*
X164016194Y-70535965D01*
X164016194Y-70535965D02*
X164225718Y-70535965D01*
X163544766Y-70107393D02*
X163544766Y-71107393D01*
X163544766Y-71107393D02*
X163125718Y-71107393D01*
X163125718Y-71107393D02*
X163020956Y-71059774D01*
X163020956Y-71059774D02*
X162968575Y-71012155D01*
X162968575Y-71012155D02*
X162916194Y-70916917D01*
X162916194Y-70916917D02*
X162916194Y-70774060D01*
X162916194Y-70774060D02*
X162968575Y-70678822D01*
X162968575Y-70678822D02*
X163020956Y-70631203D01*
X163020956Y-70631203D02*
X163125718Y-70583584D01*
X163125718Y-70583584D02*
X163544766Y-70583584D01*
X162444766Y-70107393D02*
X162444766Y-71107393D01*
X161711432Y-71107393D02*
X161501908Y-71107393D01*
X161501908Y-71107393D02*
X161397146Y-71059774D01*
X161397146Y-71059774D02*
X161292384Y-70964536D01*
X161292384Y-70964536D02*
X161240003Y-70774060D01*
X161240003Y-70774060D02*
X161240003Y-70440727D01*
X161240003Y-70440727D02*
X161292384Y-70250251D01*
X161292384Y-70250251D02*
X161397146Y-70155013D01*
X161397146Y-70155013D02*
X161501908Y-70107393D01*
X161501908Y-70107393D02*
X161711432Y-70107393D01*
X161711432Y-70107393D02*
X161816194Y-70155013D01*
X161816194Y-70155013D02*
X161920956Y-70250251D01*
X161920956Y-70250251D02*
X161973337Y-70440727D01*
X161973337Y-70440727D02*
X161973337Y-70774060D01*
X161973337Y-70774060D02*
X161920956Y-70964536D01*
X161920956Y-70964536D02*
X161816194Y-71059774D01*
X161816194Y-71059774D02*
X161711432Y-71107393D01*
X160820956Y-71012155D02*
X160768575Y-71059774D01*
X160768575Y-71059774D02*
X160663813Y-71107393D01*
X160663813Y-71107393D02*
X160401908Y-71107393D01*
X160401908Y-71107393D02*
X160297146Y-71059774D01*
X160297146Y-71059774D02*
X160244765Y-71012155D01*
X160244765Y-71012155D02*
X160192384Y-70916917D01*
X160192384Y-70916917D02*
X160192384Y-70821679D01*
X160192384Y-70821679D02*
X160244765Y-70678822D01*
X160244765Y-70678822D02*
X160873337Y-70107393D01*
X160873337Y-70107393D02*
X160192384Y-70107393D01*
X159197146Y-71107393D02*
X159720956Y-71107393D01*
X159720956Y-71107393D02*
X159773337Y-70631203D01*
X159773337Y-70631203D02*
X159720956Y-70678822D01*
X159720956Y-70678822D02*
X159616194Y-70726441D01*
X159616194Y-70726441D02*
X159354289Y-70726441D01*
X159354289Y-70726441D02*
X159249527Y-70678822D01*
X159249527Y-70678822D02*
X159197146Y-70631203D01*
X159197146Y-70631203D02*
X159144765Y-70535965D01*
X159144765Y-70535965D02*
X159144765Y-70297870D01*
X159144765Y-70297870D02*
X159197146Y-70202632D01*
X159197146Y-70202632D02*
X159249527Y-70155013D01*
X159249527Y-70155013D02*
X159354289Y-70107393D01*
X159354289Y-70107393D02*
X159616194Y-70107393D01*
X159616194Y-70107393D02*
X159720956Y-70155013D01*
X159720956Y-70155013D02*
X159773337Y-70202632D01*
X164644766Y-88131203D02*
X164278099Y-88131203D01*
X164120956Y-87607393D02*
X164644766Y-87607393D01*
X164644766Y-87607393D02*
X164644766Y-88607393D01*
X164644766Y-88607393D02*
X164120956Y-88607393D01*
X163649528Y-87607393D02*
X163649528Y-88607393D01*
X163649528Y-88607393D02*
X163020956Y-87607393D01*
X163020956Y-87607393D02*
X163020956Y-88607393D01*
X144749528Y-53607393D02*
X144068575Y-53607393D01*
X144068575Y-53607393D02*
X144435242Y-53226441D01*
X144435242Y-53226441D02*
X144278099Y-53226441D01*
X144278099Y-53226441D02*
X144173337Y-53178822D01*
X144173337Y-53178822D02*
X144120956Y-53131203D01*
X144120956Y-53131203D02*
X144068575Y-53035965D01*
X144068575Y-53035965D02*
X144068575Y-52797870D01*
X144068575Y-52797870D02*
X144120956Y-52702632D01*
X144120956Y-52702632D02*
X144173337Y-52655013D01*
X144173337Y-52655013D02*
X144278099Y-52607393D01*
X144278099Y-52607393D02*
X144592385Y-52607393D01*
X144592385Y-52607393D02*
X144697147Y-52655013D01*
X144697147Y-52655013D02*
X144749528Y-52702632D01*
X143597147Y-52702632D02*
X143544766Y-52655013D01*
X143544766Y-52655013D02*
X143597147Y-52607393D01*
X143597147Y-52607393D02*
X143649528Y-52655013D01*
X143649528Y-52655013D02*
X143597147Y-52702632D01*
X143597147Y-52702632D02*
X143597147Y-52607393D01*
X143178099Y-53607393D02*
X142497146Y-53607393D01*
X142497146Y-53607393D02*
X142863813Y-53226441D01*
X142863813Y-53226441D02*
X142706670Y-53226441D01*
X142706670Y-53226441D02*
X142601908Y-53178822D01*
X142601908Y-53178822D02*
X142549527Y-53131203D01*
X142549527Y-53131203D02*
X142497146Y-53035965D01*
X142497146Y-53035965D02*
X142497146Y-52797870D01*
X142497146Y-52797870D02*
X142549527Y-52702632D01*
X142549527Y-52702632D02*
X142601908Y-52655013D01*
X142601908Y-52655013D02*
X142706670Y-52607393D01*
X142706670Y-52607393D02*
X143020956Y-52607393D01*
X143020956Y-52607393D02*
X143125718Y-52655013D01*
X143125718Y-52655013D02*
X143178099Y-52702632D01*
X142130480Y-53274060D02*
X141868575Y-52607393D01*
X141868575Y-52607393D02*
X141606670Y-53274060D01*
X146568575Y-78559774D02*
X146673337Y-78607393D01*
X146673337Y-78607393D02*
X146830480Y-78607393D01*
X146830480Y-78607393D02*
X146987623Y-78559774D01*
X146987623Y-78559774D02*
X147092385Y-78464536D01*
X147092385Y-78464536D02*
X147144766Y-78369298D01*
X147144766Y-78369298D02*
X147197147Y-78178822D01*
X147197147Y-78178822D02*
X147197147Y-78035965D01*
X147197147Y-78035965D02*
X147144766Y-77845489D01*
X147144766Y-77845489D02*
X147092385Y-77750251D01*
X147092385Y-77750251D02*
X146987623Y-77655013D01*
X146987623Y-77655013D02*
X146830480Y-77607393D01*
X146830480Y-77607393D02*
X146725718Y-77607393D01*
X146725718Y-77607393D02*
X146568575Y-77655013D01*
X146568575Y-77655013D02*
X146516194Y-77702632D01*
X146516194Y-77702632D02*
X146516194Y-78035965D01*
X146516194Y-78035965D02*
X146725718Y-78035965D01*
X146044766Y-77607393D02*
X146044766Y-78607393D01*
X146044766Y-78607393D02*
X145625718Y-78607393D01*
X145625718Y-78607393D02*
X145520956Y-78559774D01*
X145520956Y-78559774D02*
X145468575Y-78512155D01*
X145468575Y-78512155D02*
X145416194Y-78416917D01*
X145416194Y-78416917D02*
X145416194Y-78274060D01*
X145416194Y-78274060D02*
X145468575Y-78178822D01*
X145468575Y-78178822D02*
X145520956Y-78131203D01*
X145520956Y-78131203D02*
X145625718Y-78083584D01*
X145625718Y-78083584D02*
X146044766Y-78083584D01*
X144944766Y-77607393D02*
X144944766Y-78607393D01*
X144211432Y-78607393D02*
X144001908Y-78607393D01*
X144001908Y-78607393D02*
X143897146Y-78559774D01*
X143897146Y-78559774D02*
X143792384Y-78464536D01*
X143792384Y-78464536D02*
X143740003Y-78274060D01*
X143740003Y-78274060D02*
X143740003Y-77940727D01*
X143740003Y-77940727D02*
X143792384Y-77750251D01*
X143792384Y-77750251D02*
X143897146Y-77655013D01*
X143897146Y-77655013D02*
X144001908Y-77607393D01*
X144001908Y-77607393D02*
X144211432Y-77607393D01*
X144211432Y-77607393D02*
X144316194Y-77655013D01*
X144316194Y-77655013D02*
X144420956Y-77750251D01*
X144420956Y-77750251D02*
X144473337Y-77940727D01*
X144473337Y-77940727D02*
X144473337Y-78274060D01*
X144473337Y-78274060D02*
X144420956Y-78464536D01*
X144420956Y-78464536D02*
X144316194Y-78559774D01*
X144316194Y-78559774D02*
X144211432Y-78607393D01*
X143320956Y-78512155D02*
X143268575Y-78559774D01*
X143268575Y-78559774D02*
X143163813Y-78607393D01*
X143163813Y-78607393D02*
X142901908Y-78607393D01*
X142901908Y-78607393D02*
X142797146Y-78559774D01*
X142797146Y-78559774D02*
X142744765Y-78512155D01*
X142744765Y-78512155D02*
X142692384Y-78416917D01*
X142692384Y-78416917D02*
X142692384Y-78321679D01*
X142692384Y-78321679D02*
X142744765Y-78178822D01*
X142744765Y-78178822D02*
X143373337Y-77607393D01*
X143373337Y-77607393D02*
X142692384Y-77607393D01*
X141644765Y-77607393D02*
X142273337Y-77607393D01*
X141959051Y-77607393D02*
X141959051Y-78607393D01*
X141959051Y-78607393D02*
X142063813Y-78464536D01*
X142063813Y-78464536D02*
X142168575Y-78369298D01*
X142168575Y-78369298D02*
X142273337Y-78321679D01*
X146568575Y-86559774D02*
X146673337Y-86607393D01*
X146673337Y-86607393D02*
X146830480Y-86607393D01*
X146830480Y-86607393D02*
X146987623Y-86559774D01*
X146987623Y-86559774D02*
X147092385Y-86464536D01*
X147092385Y-86464536D02*
X147144766Y-86369298D01*
X147144766Y-86369298D02*
X147197147Y-86178822D01*
X147197147Y-86178822D02*
X147197147Y-86035965D01*
X147197147Y-86035965D02*
X147144766Y-85845489D01*
X147144766Y-85845489D02*
X147092385Y-85750251D01*
X147092385Y-85750251D02*
X146987623Y-85655013D01*
X146987623Y-85655013D02*
X146830480Y-85607393D01*
X146830480Y-85607393D02*
X146725718Y-85607393D01*
X146725718Y-85607393D02*
X146568575Y-85655013D01*
X146568575Y-85655013D02*
X146516194Y-85702632D01*
X146516194Y-85702632D02*
X146516194Y-86035965D01*
X146516194Y-86035965D02*
X146725718Y-86035965D01*
X146044766Y-85607393D02*
X146044766Y-86607393D01*
X146044766Y-86607393D02*
X145625718Y-86607393D01*
X145625718Y-86607393D02*
X145520956Y-86559774D01*
X145520956Y-86559774D02*
X145468575Y-86512155D01*
X145468575Y-86512155D02*
X145416194Y-86416917D01*
X145416194Y-86416917D02*
X145416194Y-86274060D01*
X145416194Y-86274060D02*
X145468575Y-86178822D01*
X145468575Y-86178822D02*
X145520956Y-86131203D01*
X145520956Y-86131203D02*
X145625718Y-86083584D01*
X145625718Y-86083584D02*
X146044766Y-86083584D01*
X144944766Y-85607393D02*
X144944766Y-86607393D01*
X144211432Y-86607393D02*
X144001908Y-86607393D01*
X144001908Y-86607393D02*
X143897146Y-86559774D01*
X143897146Y-86559774D02*
X143792384Y-86464536D01*
X143792384Y-86464536D02*
X143740003Y-86274060D01*
X143740003Y-86274060D02*
X143740003Y-85940727D01*
X143740003Y-85940727D02*
X143792384Y-85750251D01*
X143792384Y-85750251D02*
X143897146Y-85655013D01*
X143897146Y-85655013D02*
X144001908Y-85607393D01*
X144001908Y-85607393D02*
X144211432Y-85607393D01*
X144211432Y-85607393D02*
X144316194Y-85655013D01*
X144316194Y-85655013D02*
X144420956Y-85750251D01*
X144420956Y-85750251D02*
X144473337Y-85940727D01*
X144473337Y-85940727D02*
X144473337Y-86274060D01*
X144473337Y-86274060D02*
X144420956Y-86464536D01*
X144420956Y-86464536D02*
X144316194Y-86559774D01*
X144316194Y-86559774D02*
X144211432Y-86607393D01*
X143320956Y-86512155D02*
X143268575Y-86559774D01*
X143268575Y-86559774D02*
X143163813Y-86607393D01*
X143163813Y-86607393D02*
X142901908Y-86607393D01*
X142901908Y-86607393D02*
X142797146Y-86559774D01*
X142797146Y-86559774D02*
X142744765Y-86512155D01*
X142744765Y-86512155D02*
X142692384Y-86416917D01*
X142692384Y-86416917D02*
X142692384Y-86321679D01*
X142692384Y-86321679D02*
X142744765Y-86178822D01*
X142744765Y-86178822D02*
X143373337Y-85607393D01*
X143373337Y-85607393D02*
X142692384Y-85607393D01*
X142273337Y-86512155D02*
X142220956Y-86559774D01*
X142220956Y-86559774D02*
X142116194Y-86607393D01*
X142116194Y-86607393D02*
X141854289Y-86607393D01*
X141854289Y-86607393D02*
X141749527Y-86559774D01*
X141749527Y-86559774D02*
X141697146Y-86512155D01*
X141697146Y-86512155D02*
X141644765Y-86416917D01*
X141644765Y-86416917D02*
X141644765Y-86321679D01*
X141644765Y-86321679D02*
X141697146Y-86178822D01*
X141697146Y-86178822D02*
X142325718Y-85607393D01*
X142325718Y-85607393D02*
X141644765Y-85607393D01*
X164068575Y-56059774D02*
X164173337Y-56107393D01*
X164173337Y-56107393D02*
X164330480Y-56107393D01*
X164330480Y-56107393D02*
X164487623Y-56059774D01*
X164487623Y-56059774D02*
X164592385Y-55964536D01*
X164592385Y-55964536D02*
X164644766Y-55869298D01*
X164644766Y-55869298D02*
X164697147Y-55678822D01*
X164697147Y-55678822D02*
X164697147Y-55535965D01*
X164697147Y-55535965D02*
X164644766Y-55345489D01*
X164644766Y-55345489D02*
X164592385Y-55250251D01*
X164592385Y-55250251D02*
X164487623Y-55155013D01*
X164487623Y-55155013D02*
X164330480Y-55107393D01*
X164330480Y-55107393D02*
X164225718Y-55107393D01*
X164225718Y-55107393D02*
X164068575Y-55155013D01*
X164068575Y-55155013D02*
X164016194Y-55202632D01*
X164016194Y-55202632D02*
X164016194Y-55535965D01*
X164016194Y-55535965D02*
X164225718Y-55535965D01*
X163544766Y-55107393D02*
X163544766Y-56107393D01*
X163544766Y-56107393D02*
X162916194Y-55107393D01*
X162916194Y-55107393D02*
X162916194Y-56107393D01*
X162392385Y-55107393D02*
X162392385Y-56107393D01*
X162392385Y-56107393D02*
X162130480Y-56107393D01*
X162130480Y-56107393D02*
X161973337Y-56059774D01*
X161973337Y-56059774D02*
X161868575Y-55964536D01*
X161868575Y-55964536D02*
X161816194Y-55869298D01*
X161816194Y-55869298D02*
X161763813Y-55678822D01*
X161763813Y-55678822D02*
X161763813Y-55535965D01*
X161763813Y-55535965D02*
X161816194Y-55345489D01*
X161816194Y-55345489D02*
X161868575Y-55250251D01*
X161868575Y-55250251D02*
X161973337Y-55155013D01*
X161973337Y-55155013D02*
X162130480Y-55107393D01*
X162130480Y-55107393D02*
X162392385Y-55107393D01*
X164068575Y-76059774D02*
X164173337Y-76107393D01*
X164173337Y-76107393D02*
X164330480Y-76107393D01*
X164330480Y-76107393D02*
X164487623Y-76059774D01*
X164487623Y-76059774D02*
X164592385Y-75964536D01*
X164592385Y-75964536D02*
X164644766Y-75869298D01*
X164644766Y-75869298D02*
X164697147Y-75678822D01*
X164697147Y-75678822D02*
X164697147Y-75535965D01*
X164697147Y-75535965D02*
X164644766Y-75345489D01*
X164644766Y-75345489D02*
X164592385Y-75250251D01*
X164592385Y-75250251D02*
X164487623Y-75155013D01*
X164487623Y-75155013D02*
X164330480Y-75107393D01*
X164330480Y-75107393D02*
X164225718Y-75107393D01*
X164225718Y-75107393D02*
X164068575Y-75155013D01*
X164068575Y-75155013D02*
X164016194Y-75202632D01*
X164016194Y-75202632D02*
X164016194Y-75535965D01*
X164016194Y-75535965D02*
X164225718Y-75535965D01*
X163544766Y-75107393D02*
X163544766Y-76107393D01*
X163544766Y-76107393D02*
X163125718Y-76107393D01*
X163125718Y-76107393D02*
X163020956Y-76059774D01*
X163020956Y-76059774D02*
X162968575Y-76012155D01*
X162968575Y-76012155D02*
X162916194Y-75916917D01*
X162916194Y-75916917D02*
X162916194Y-75774060D01*
X162916194Y-75774060D02*
X162968575Y-75678822D01*
X162968575Y-75678822D02*
X163020956Y-75631203D01*
X163020956Y-75631203D02*
X163125718Y-75583584D01*
X163125718Y-75583584D02*
X163544766Y-75583584D01*
X162444766Y-75107393D02*
X162444766Y-76107393D01*
X161711432Y-76107393D02*
X161501908Y-76107393D01*
X161501908Y-76107393D02*
X161397146Y-76059774D01*
X161397146Y-76059774D02*
X161292384Y-75964536D01*
X161292384Y-75964536D02*
X161240003Y-75774060D01*
X161240003Y-75774060D02*
X161240003Y-75440727D01*
X161240003Y-75440727D02*
X161292384Y-75250251D01*
X161292384Y-75250251D02*
X161397146Y-75155013D01*
X161397146Y-75155013D02*
X161501908Y-75107393D01*
X161501908Y-75107393D02*
X161711432Y-75107393D01*
X161711432Y-75107393D02*
X161816194Y-75155013D01*
X161816194Y-75155013D02*
X161920956Y-75250251D01*
X161920956Y-75250251D02*
X161973337Y-75440727D01*
X161973337Y-75440727D02*
X161973337Y-75774060D01*
X161973337Y-75774060D02*
X161920956Y-75964536D01*
X161920956Y-75964536D02*
X161816194Y-76059774D01*
X161816194Y-76059774D02*
X161711432Y-76107393D01*
X160873337Y-76107393D02*
X160192384Y-76107393D01*
X160192384Y-76107393D02*
X160559051Y-75726441D01*
X160559051Y-75726441D02*
X160401908Y-75726441D01*
X160401908Y-75726441D02*
X160297146Y-75678822D01*
X160297146Y-75678822D02*
X160244765Y-75631203D01*
X160244765Y-75631203D02*
X160192384Y-75535965D01*
X160192384Y-75535965D02*
X160192384Y-75297870D01*
X160192384Y-75297870D02*
X160244765Y-75202632D01*
X160244765Y-75202632D02*
X160297146Y-75155013D01*
X160297146Y-75155013D02*
X160401908Y-75107393D01*
X160401908Y-75107393D02*
X160716194Y-75107393D01*
X160716194Y-75107393D02*
X160820956Y-75155013D01*
X160820956Y-75155013D02*
X160873337Y-75202632D01*
X159773337Y-76012155D02*
X159720956Y-76059774D01*
X159720956Y-76059774D02*
X159616194Y-76107393D01*
X159616194Y-76107393D02*
X159354289Y-76107393D01*
X159354289Y-76107393D02*
X159249527Y-76059774D01*
X159249527Y-76059774D02*
X159197146Y-76012155D01*
X159197146Y-76012155D02*
X159144765Y-75916917D01*
X159144765Y-75916917D02*
X159144765Y-75821679D01*
X159144765Y-75821679D02*
X159197146Y-75678822D01*
X159197146Y-75678822D02*
X159825718Y-75107393D01*
X159825718Y-75107393D02*
X159144765Y-75107393D01*
X145568575Y-71059774D02*
X145673337Y-71107393D01*
X145673337Y-71107393D02*
X145830480Y-71107393D01*
X145830480Y-71107393D02*
X145987623Y-71059774D01*
X145987623Y-71059774D02*
X146092385Y-70964536D01*
X146092385Y-70964536D02*
X146144766Y-70869298D01*
X146144766Y-70869298D02*
X146197147Y-70678822D01*
X146197147Y-70678822D02*
X146197147Y-70535965D01*
X146197147Y-70535965D02*
X146144766Y-70345489D01*
X146144766Y-70345489D02*
X146092385Y-70250251D01*
X146092385Y-70250251D02*
X145987623Y-70155013D01*
X145987623Y-70155013D02*
X145830480Y-70107393D01*
X145830480Y-70107393D02*
X145725718Y-70107393D01*
X145725718Y-70107393D02*
X145568575Y-70155013D01*
X145568575Y-70155013D02*
X145516194Y-70202632D01*
X145516194Y-70202632D02*
X145516194Y-70535965D01*
X145516194Y-70535965D02*
X145725718Y-70535965D01*
X145044766Y-70107393D02*
X145044766Y-71107393D01*
X145044766Y-71107393D02*
X144625718Y-71107393D01*
X144625718Y-71107393D02*
X144520956Y-71059774D01*
X144520956Y-71059774D02*
X144468575Y-71012155D01*
X144468575Y-71012155D02*
X144416194Y-70916917D01*
X144416194Y-70916917D02*
X144416194Y-70774060D01*
X144416194Y-70774060D02*
X144468575Y-70678822D01*
X144468575Y-70678822D02*
X144520956Y-70631203D01*
X144520956Y-70631203D02*
X144625718Y-70583584D01*
X144625718Y-70583584D02*
X145044766Y-70583584D01*
X143944766Y-70107393D02*
X143944766Y-71107393D01*
X143211432Y-71107393D02*
X143001908Y-71107393D01*
X143001908Y-71107393D02*
X142897146Y-71059774D01*
X142897146Y-71059774D02*
X142792384Y-70964536D01*
X142792384Y-70964536D02*
X142740003Y-70774060D01*
X142740003Y-70774060D02*
X142740003Y-70440727D01*
X142740003Y-70440727D02*
X142792384Y-70250251D01*
X142792384Y-70250251D02*
X142897146Y-70155013D01*
X142897146Y-70155013D02*
X143001908Y-70107393D01*
X143001908Y-70107393D02*
X143211432Y-70107393D01*
X143211432Y-70107393D02*
X143316194Y-70155013D01*
X143316194Y-70155013D02*
X143420956Y-70250251D01*
X143420956Y-70250251D02*
X143473337Y-70440727D01*
X143473337Y-70440727D02*
X143473337Y-70774060D01*
X143473337Y-70774060D02*
X143420956Y-70964536D01*
X143420956Y-70964536D02*
X143316194Y-71059774D01*
X143316194Y-71059774D02*
X143211432Y-71107393D01*
X141744765Y-71107393D02*
X142268575Y-71107393D01*
X142268575Y-71107393D02*
X142320956Y-70631203D01*
X142320956Y-70631203D02*
X142268575Y-70678822D01*
X142268575Y-70678822D02*
X142163813Y-70726441D01*
X142163813Y-70726441D02*
X141901908Y-70726441D01*
X141901908Y-70726441D02*
X141797146Y-70678822D01*
X141797146Y-70678822D02*
X141744765Y-70631203D01*
X141744765Y-70631203D02*
X141692384Y-70535965D01*
X141692384Y-70535965D02*
X141692384Y-70297870D01*
X141692384Y-70297870D02*
X141744765Y-70202632D01*
X141744765Y-70202632D02*
X141797146Y-70155013D01*
X141797146Y-70155013D02*
X141901908Y-70107393D01*
X141901908Y-70107393D02*
X142163813Y-70107393D01*
X142163813Y-70107393D02*
X142268575Y-70155013D01*
X142268575Y-70155013D02*
X142320956Y-70202632D01*
X146568575Y-58559774D02*
X146673337Y-58607393D01*
X146673337Y-58607393D02*
X146830480Y-58607393D01*
X146830480Y-58607393D02*
X146987623Y-58559774D01*
X146987623Y-58559774D02*
X147092385Y-58464536D01*
X147092385Y-58464536D02*
X147144766Y-58369298D01*
X147144766Y-58369298D02*
X147197147Y-58178822D01*
X147197147Y-58178822D02*
X147197147Y-58035965D01*
X147197147Y-58035965D02*
X147144766Y-57845489D01*
X147144766Y-57845489D02*
X147092385Y-57750251D01*
X147092385Y-57750251D02*
X146987623Y-57655013D01*
X146987623Y-57655013D02*
X146830480Y-57607393D01*
X146830480Y-57607393D02*
X146725718Y-57607393D01*
X146725718Y-57607393D02*
X146568575Y-57655013D01*
X146568575Y-57655013D02*
X146516194Y-57702632D01*
X146516194Y-57702632D02*
X146516194Y-58035965D01*
X146516194Y-58035965D02*
X146725718Y-58035965D01*
X146044766Y-57607393D02*
X146044766Y-58607393D01*
X146044766Y-58607393D02*
X145625718Y-58607393D01*
X145625718Y-58607393D02*
X145520956Y-58559774D01*
X145520956Y-58559774D02*
X145468575Y-58512155D01*
X145468575Y-58512155D02*
X145416194Y-58416917D01*
X145416194Y-58416917D02*
X145416194Y-58274060D01*
X145416194Y-58274060D02*
X145468575Y-58178822D01*
X145468575Y-58178822D02*
X145520956Y-58131203D01*
X145520956Y-58131203D02*
X145625718Y-58083584D01*
X145625718Y-58083584D02*
X146044766Y-58083584D01*
X144944766Y-57607393D02*
X144944766Y-58607393D01*
X144211432Y-58607393D02*
X144001908Y-58607393D01*
X144001908Y-58607393D02*
X143897146Y-58559774D01*
X143897146Y-58559774D02*
X143792384Y-58464536D01*
X143792384Y-58464536D02*
X143740003Y-58274060D01*
X143740003Y-58274060D02*
X143740003Y-57940727D01*
X143740003Y-57940727D02*
X143792384Y-57750251D01*
X143792384Y-57750251D02*
X143897146Y-57655013D01*
X143897146Y-57655013D02*
X144001908Y-57607393D01*
X144001908Y-57607393D02*
X144211432Y-57607393D01*
X144211432Y-57607393D02*
X144316194Y-57655013D01*
X144316194Y-57655013D02*
X144420956Y-57750251D01*
X144420956Y-57750251D02*
X144473337Y-57940727D01*
X144473337Y-57940727D02*
X144473337Y-58274060D01*
X144473337Y-58274060D02*
X144420956Y-58464536D01*
X144420956Y-58464536D02*
X144316194Y-58559774D01*
X144316194Y-58559774D02*
X144211432Y-58607393D01*
X142692384Y-57607393D02*
X143320956Y-57607393D01*
X143006670Y-57607393D02*
X143006670Y-58607393D01*
X143006670Y-58607393D02*
X143111432Y-58464536D01*
X143111432Y-58464536D02*
X143216194Y-58369298D01*
X143216194Y-58369298D02*
X143320956Y-58321679D01*
X141697146Y-58607393D02*
X142220956Y-58607393D01*
X142220956Y-58607393D02*
X142273337Y-58131203D01*
X142273337Y-58131203D02*
X142220956Y-58178822D01*
X142220956Y-58178822D02*
X142116194Y-58226441D01*
X142116194Y-58226441D02*
X141854289Y-58226441D01*
X141854289Y-58226441D02*
X141749527Y-58178822D01*
X141749527Y-58178822D02*
X141697146Y-58131203D01*
X141697146Y-58131203D02*
X141644765Y-58035965D01*
X141644765Y-58035965D02*
X141644765Y-57797870D01*
X141644765Y-57797870D02*
X141697146Y-57702632D01*
X141697146Y-57702632D02*
X141749527Y-57655013D01*
X141749527Y-57655013D02*
X141854289Y-57607393D01*
X141854289Y-57607393D02*
X142116194Y-57607393D01*
X142116194Y-57607393D02*
X142220956Y-57655013D01*
X142220956Y-57655013D02*
X142273337Y-57702632D01*
X146568575Y-73559774D02*
X146673337Y-73607393D01*
X146673337Y-73607393D02*
X146830480Y-73607393D01*
X146830480Y-73607393D02*
X146987623Y-73559774D01*
X146987623Y-73559774D02*
X147092385Y-73464536D01*
X147092385Y-73464536D02*
X147144766Y-73369298D01*
X147144766Y-73369298D02*
X147197147Y-73178822D01*
X147197147Y-73178822D02*
X147197147Y-73035965D01*
X147197147Y-73035965D02*
X147144766Y-72845489D01*
X147144766Y-72845489D02*
X147092385Y-72750251D01*
X147092385Y-72750251D02*
X146987623Y-72655013D01*
X146987623Y-72655013D02*
X146830480Y-72607393D01*
X146830480Y-72607393D02*
X146725718Y-72607393D01*
X146725718Y-72607393D02*
X146568575Y-72655013D01*
X146568575Y-72655013D02*
X146516194Y-72702632D01*
X146516194Y-72702632D02*
X146516194Y-73035965D01*
X146516194Y-73035965D02*
X146725718Y-73035965D01*
X146044766Y-72607393D02*
X146044766Y-73607393D01*
X146044766Y-73607393D02*
X145625718Y-73607393D01*
X145625718Y-73607393D02*
X145520956Y-73559774D01*
X145520956Y-73559774D02*
X145468575Y-73512155D01*
X145468575Y-73512155D02*
X145416194Y-73416917D01*
X145416194Y-73416917D02*
X145416194Y-73274060D01*
X145416194Y-73274060D02*
X145468575Y-73178822D01*
X145468575Y-73178822D02*
X145520956Y-73131203D01*
X145520956Y-73131203D02*
X145625718Y-73083584D01*
X145625718Y-73083584D02*
X146044766Y-73083584D01*
X144944766Y-72607393D02*
X144944766Y-73607393D01*
X144211432Y-73607393D02*
X144001908Y-73607393D01*
X144001908Y-73607393D02*
X143897146Y-73559774D01*
X143897146Y-73559774D02*
X143792384Y-73464536D01*
X143792384Y-73464536D02*
X143740003Y-73274060D01*
X143740003Y-73274060D02*
X143740003Y-72940727D01*
X143740003Y-72940727D02*
X143792384Y-72750251D01*
X143792384Y-72750251D02*
X143897146Y-72655013D01*
X143897146Y-72655013D02*
X144001908Y-72607393D01*
X144001908Y-72607393D02*
X144211432Y-72607393D01*
X144211432Y-72607393D02*
X144316194Y-72655013D01*
X144316194Y-72655013D02*
X144420956Y-72750251D01*
X144420956Y-72750251D02*
X144473337Y-72940727D01*
X144473337Y-72940727D02*
X144473337Y-73274060D01*
X144473337Y-73274060D02*
X144420956Y-73464536D01*
X144420956Y-73464536D02*
X144316194Y-73559774D01*
X144316194Y-73559774D02*
X144211432Y-73607393D01*
X142692384Y-72607393D02*
X143320956Y-72607393D01*
X143006670Y-72607393D02*
X143006670Y-73607393D01*
X143006670Y-73607393D02*
X143111432Y-73464536D01*
X143111432Y-73464536D02*
X143216194Y-73369298D01*
X143216194Y-73369298D02*
X143320956Y-73321679D01*
X142063813Y-73178822D02*
X142168575Y-73226441D01*
X142168575Y-73226441D02*
X142220956Y-73274060D01*
X142220956Y-73274060D02*
X142273337Y-73369298D01*
X142273337Y-73369298D02*
X142273337Y-73416917D01*
X142273337Y-73416917D02*
X142220956Y-73512155D01*
X142220956Y-73512155D02*
X142168575Y-73559774D01*
X142168575Y-73559774D02*
X142063813Y-73607393D01*
X142063813Y-73607393D02*
X141854289Y-73607393D01*
X141854289Y-73607393D02*
X141749527Y-73559774D01*
X141749527Y-73559774D02*
X141697146Y-73512155D01*
X141697146Y-73512155D02*
X141644765Y-73416917D01*
X141644765Y-73416917D02*
X141644765Y-73369298D01*
X141644765Y-73369298D02*
X141697146Y-73274060D01*
X141697146Y-73274060D02*
X141749527Y-73226441D01*
X141749527Y-73226441D02*
X141854289Y-73178822D01*
X141854289Y-73178822D02*
X142063813Y-73178822D01*
X142063813Y-73178822D02*
X142168575Y-73131203D01*
X142168575Y-73131203D02*
X142220956Y-73083584D01*
X142220956Y-73083584D02*
X142273337Y-72988346D01*
X142273337Y-72988346D02*
X142273337Y-72797870D01*
X142273337Y-72797870D02*
X142220956Y-72702632D01*
X142220956Y-72702632D02*
X142168575Y-72655013D01*
X142168575Y-72655013D02*
X142063813Y-72607393D01*
X142063813Y-72607393D02*
X141854289Y-72607393D01*
X141854289Y-72607393D02*
X141749527Y-72655013D01*
X141749527Y-72655013D02*
X141697146Y-72702632D01*
X141697146Y-72702632D02*
X141644765Y-72797870D01*
X141644765Y-72797870D02*
X141644765Y-72988346D01*
X141644765Y-72988346D02*
X141697146Y-73083584D01*
X141697146Y-73083584D02*
X141749527Y-73131203D01*
X141749527Y-73131203D02*
X141854289Y-73178822D01*
X164068575Y-73559774D02*
X164173337Y-73607393D01*
X164173337Y-73607393D02*
X164330480Y-73607393D01*
X164330480Y-73607393D02*
X164487623Y-73559774D01*
X164487623Y-73559774D02*
X164592385Y-73464536D01*
X164592385Y-73464536D02*
X164644766Y-73369298D01*
X164644766Y-73369298D02*
X164697147Y-73178822D01*
X164697147Y-73178822D02*
X164697147Y-73035965D01*
X164697147Y-73035965D02*
X164644766Y-72845489D01*
X164644766Y-72845489D02*
X164592385Y-72750251D01*
X164592385Y-72750251D02*
X164487623Y-72655013D01*
X164487623Y-72655013D02*
X164330480Y-72607393D01*
X164330480Y-72607393D02*
X164225718Y-72607393D01*
X164225718Y-72607393D02*
X164068575Y-72655013D01*
X164068575Y-72655013D02*
X164016194Y-72702632D01*
X164016194Y-72702632D02*
X164016194Y-73035965D01*
X164016194Y-73035965D02*
X164225718Y-73035965D01*
X163544766Y-72607393D02*
X163544766Y-73607393D01*
X163544766Y-73607393D02*
X163125718Y-73607393D01*
X163125718Y-73607393D02*
X163020956Y-73559774D01*
X163020956Y-73559774D02*
X162968575Y-73512155D01*
X162968575Y-73512155D02*
X162916194Y-73416917D01*
X162916194Y-73416917D02*
X162916194Y-73274060D01*
X162916194Y-73274060D02*
X162968575Y-73178822D01*
X162968575Y-73178822D02*
X163020956Y-73131203D01*
X163020956Y-73131203D02*
X163125718Y-73083584D01*
X163125718Y-73083584D02*
X163544766Y-73083584D01*
X162444766Y-72607393D02*
X162444766Y-73607393D01*
X161711432Y-73607393D02*
X161501908Y-73607393D01*
X161501908Y-73607393D02*
X161397146Y-73559774D01*
X161397146Y-73559774D02*
X161292384Y-73464536D01*
X161292384Y-73464536D02*
X161240003Y-73274060D01*
X161240003Y-73274060D02*
X161240003Y-72940727D01*
X161240003Y-72940727D02*
X161292384Y-72750251D01*
X161292384Y-72750251D02*
X161397146Y-72655013D01*
X161397146Y-72655013D02*
X161501908Y-72607393D01*
X161501908Y-72607393D02*
X161711432Y-72607393D01*
X161711432Y-72607393D02*
X161816194Y-72655013D01*
X161816194Y-72655013D02*
X161920956Y-72750251D01*
X161920956Y-72750251D02*
X161973337Y-72940727D01*
X161973337Y-72940727D02*
X161973337Y-73274060D01*
X161973337Y-73274060D02*
X161920956Y-73464536D01*
X161920956Y-73464536D02*
X161816194Y-73559774D01*
X161816194Y-73559774D02*
X161711432Y-73607393D01*
X160873337Y-73607393D02*
X160192384Y-73607393D01*
X160192384Y-73607393D02*
X160559051Y-73226441D01*
X160559051Y-73226441D02*
X160401908Y-73226441D01*
X160401908Y-73226441D02*
X160297146Y-73178822D01*
X160297146Y-73178822D02*
X160244765Y-73131203D01*
X160244765Y-73131203D02*
X160192384Y-73035965D01*
X160192384Y-73035965D02*
X160192384Y-72797870D01*
X160192384Y-72797870D02*
X160244765Y-72702632D01*
X160244765Y-72702632D02*
X160297146Y-72655013D01*
X160297146Y-72655013D02*
X160401908Y-72607393D01*
X160401908Y-72607393D02*
X160716194Y-72607393D01*
X160716194Y-72607393D02*
X160820956Y-72655013D01*
X160820956Y-72655013D02*
X160873337Y-72702632D01*
X159825718Y-73607393D02*
X159144765Y-73607393D01*
X159144765Y-73607393D02*
X159511432Y-73226441D01*
X159511432Y-73226441D02*
X159354289Y-73226441D01*
X159354289Y-73226441D02*
X159249527Y-73178822D01*
X159249527Y-73178822D02*
X159197146Y-73131203D01*
X159197146Y-73131203D02*
X159144765Y-73035965D01*
X159144765Y-73035965D02*
X159144765Y-72797870D01*
X159144765Y-72797870D02*
X159197146Y-72702632D01*
X159197146Y-72702632D02*
X159249527Y-72655013D01*
X159249527Y-72655013D02*
X159354289Y-72607393D01*
X159354289Y-72607393D02*
X159668575Y-72607393D01*
X159668575Y-72607393D02*
X159773337Y-72655013D01*
X159773337Y-72655013D02*
X159825718Y-72702632D01*
D10*
X110354819Y-124083333D02*
X111069104Y-124083333D01*
X111069104Y-124083333D02*
X111211961Y-124130952D01*
X111211961Y-124130952D02*
X111307200Y-124226190D01*
X111307200Y-124226190D02*
X111354819Y-124369047D01*
X111354819Y-124369047D02*
X111354819Y-124464285D01*
X111354819Y-123083333D02*
X111354819Y-123654761D01*
X111354819Y-123369047D02*
X110354819Y-123369047D01*
X110354819Y-123369047D02*
X110497676Y-123464285D01*
X110497676Y-123464285D02*
X110592914Y-123559523D01*
X110592914Y-123559523D02*
X110640533Y-123654761D01*
X93344014Y-84520687D02*
X93458471Y-84558839D01*
X93458471Y-84558839D02*
X93649232Y-84558839D01*
X93649232Y-84558839D02*
X93725537Y-84520687D01*
X93725537Y-84520687D02*
X93763689Y-84482534D01*
X93763689Y-84482534D02*
X93801841Y-84406230D01*
X93801841Y-84406230D02*
X93801841Y-84329925D01*
X93801841Y-84329925D02*
X93763689Y-84253621D01*
X93763689Y-84253621D02*
X93725537Y-84215469D01*
X93725537Y-84215469D02*
X93649232Y-84177316D01*
X93649232Y-84177316D02*
X93496623Y-84139164D01*
X93496623Y-84139164D02*
X93420319Y-84101012D01*
X93420319Y-84101012D02*
X93382167Y-84062860D01*
X93382167Y-84062860D02*
X93344014Y-83986555D01*
X93344014Y-83986555D02*
X93344014Y-83910251D01*
X93344014Y-83910251D02*
X93382167Y-83833946D01*
X93382167Y-83833946D02*
X93420319Y-83795794D01*
X93420319Y-83795794D02*
X93496623Y-83757642D01*
X93496623Y-83757642D02*
X93687385Y-83757642D01*
X93687385Y-83757642D02*
X93801841Y-83795794D01*
X94068907Y-83757642D02*
X94259668Y-84558839D01*
X94259668Y-84558839D02*
X94412277Y-83986555D01*
X94412277Y-83986555D02*
X94564886Y-84558839D01*
X94564886Y-84558839D02*
X94755648Y-83757642D01*
X95480540Y-84558839D02*
X95022713Y-84558839D01*
X95251627Y-84558839D02*
X95251627Y-83757642D01*
X95251627Y-83757642D02*
X95175322Y-83872098D01*
X95175322Y-83872098D02*
X95099018Y-83948403D01*
X95099018Y-83948403D02*
X95022713Y-83986555D01*
X96243585Y-84558839D02*
X95785758Y-84558839D01*
X96014672Y-84558839D02*
X96014672Y-83757642D01*
X96014672Y-83757642D02*
X95938367Y-83872098D01*
X95938367Y-83872098D02*
X95862063Y-83948403D01*
X95862063Y-83948403D02*
X95785758Y-83986555D01*
X101594014Y-72020687D02*
X101708471Y-72058839D01*
X101708471Y-72058839D02*
X101899232Y-72058839D01*
X101899232Y-72058839D02*
X101975537Y-72020687D01*
X101975537Y-72020687D02*
X102013689Y-71982534D01*
X102013689Y-71982534D02*
X102051841Y-71906230D01*
X102051841Y-71906230D02*
X102051841Y-71829925D01*
X102051841Y-71829925D02*
X102013689Y-71753621D01*
X102013689Y-71753621D02*
X101975537Y-71715469D01*
X101975537Y-71715469D02*
X101899232Y-71677316D01*
X101899232Y-71677316D02*
X101746623Y-71639164D01*
X101746623Y-71639164D02*
X101670319Y-71601012D01*
X101670319Y-71601012D02*
X101632167Y-71562860D01*
X101632167Y-71562860D02*
X101594014Y-71486555D01*
X101594014Y-71486555D02*
X101594014Y-71410251D01*
X101594014Y-71410251D02*
X101632167Y-71333946D01*
X101632167Y-71333946D02*
X101670319Y-71295794D01*
X101670319Y-71295794D02*
X101746623Y-71257642D01*
X101746623Y-71257642D02*
X101937385Y-71257642D01*
X101937385Y-71257642D02*
X102051841Y-71295794D01*
X102318907Y-71257642D02*
X102509668Y-72058839D01*
X102509668Y-72058839D02*
X102662277Y-71486555D01*
X102662277Y-71486555D02*
X102814886Y-72058839D01*
X102814886Y-72058839D02*
X103005648Y-71257642D01*
X103730540Y-72058839D02*
X103272713Y-72058839D01*
X103501627Y-72058839D02*
X103501627Y-71257642D01*
X103501627Y-71257642D02*
X103425322Y-71372098D01*
X103425322Y-71372098D02*
X103349018Y-71448403D01*
X103349018Y-71448403D02*
X103272713Y-71486555D01*
X103997606Y-71257642D02*
X104493585Y-71257642D01*
X104493585Y-71257642D02*
X104226520Y-71562860D01*
X104226520Y-71562860D02*
X104340976Y-71562860D01*
X104340976Y-71562860D02*
X104417281Y-71601012D01*
X104417281Y-71601012D02*
X104455433Y-71639164D01*
X104455433Y-71639164D02*
X104493585Y-71715469D01*
X104493585Y-71715469D02*
X104493585Y-71906230D01*
X104493585Y-71906230D02*
X104455433Y-71982534D01*
X104455433Y-71982534D02*
X104417281Y-72020687D01*
X104417281Y-72020687D02*
X104340976Y-72058839D01*
X104340976Y-72058839D02*
X104112063Y-72058839D01*
X104112063Y-72058839D02*
X104035758Y-72020687D01*
X104035758Y-72020687D02*
X103997606Y-71982534D01*
X172181736Y-45324697D02*
X172296193Y-45362849D01*
X172296193Y-45362849D02*
X172486954Y-45362849D01*
X172486954Y-45362849D02*
X172563259Y-45324697D01*
X172563259Y-45324697D02*
X172601411Y-45286544D01*
X172601411Y-45286544D02*
X172639563Y-45210240D01*
X172639563Y-45210240D02*
X172639563Y-45133935D01*
X172639563Y-45133935D02*
X172601411Y-45057631D01*
X172601411Y-45057631D02*
X172563259Y-45019479D01*
X172563259Y-45019479D02*
X172486954Y-44981326D01*
X172486954Y-44981326D02*
X172334345Y-44943174D01*
X172334345Y-44943174D02*
X172258041Y-44905022D01*
X172258041Y-44905022D02*
X172219889Y-44866870D01*
X172219889Y-44866870D02*
X172181736Y-44790565D01*
X172181736Y-44790565D02*
X172181736Y-44714261D01*
X172181736Y-44714261D02*
X172219889Y-44637956D01*
X172219889Y-44637956D02*
X172258041Y-44599804D01*
X172258041Y-44599804D02*
X172334345Y-44561652D01*
X172334345Y-44561652D02*
X172525107Y-44561652D01*
X172525107Y-44561652D02*
X172639563Y-44599804D01*
X172906629Y-44561652D02*
X173097390Y-45362849D01*
X173097390Y-45362849D02*
X173249999Y-44790565D01*
X173249999Y-44790565D02*
X173402608Y-45362849D01*
X173402608Y-45362849D02*
X173593370Y-44561652D01*
X174013044Y-44905022D02*
X173936740Y-44866870D01*
X173936740Y-44866870D02*
X173898588Y-44828717D01*
X173898588Y-44828717D02*
X173860435Y-44752413D01*
X173860435Y-44752413D02*
X173860435Y-44714261D01*
X173860435Y-44714261D02*
X173898588Y-44637956D01*
X173898588Y-44637956D02*
X173936740Y-44599804D01*
X173936740Y-44599804D02*
X174013044Y-44561652D01*
X174013044Y-44561652D02*
X174165653Y-44561652D01*
X174165653Y-44561652D02*
X174241958Y-44599804D01*
X174241958Y-44599804D02*
X174280110Y-44637956D01*
X174280110Y-44637956D02*
X174318262Y-44714261D01*
X174318262Y-44714261D02*
X174318262Y-44752413D01*
X174318262Y-44752413D02*
X174280110Y-44828717D01*
X174280110Y-44828717D02*
X174241958Y-44866870D01*
X174241958Y-44866870D02*
X174165653Y-44905022D01*
X174165653Y-44905022D02*
X174013044Y-44905022D01*
X174013044Y-44905022D02*
X173936740Y-44943174D01*
X173936740Y-44943174D02*
X173898588Y-44981326D01*
X173898588Y-44981326D02*
X173860435Y-45057631D01*
X173860435Y-45057631D02*
X173860435Y-45210240D01*
X173860435Y-45210240D02*
X173898588Y-45286544D01*
X173898588Y-45286544D02*
X173936740Y-45324697D01*
X173936740Y-45324697D02*
X174013044Y-45362849D01*
X174013044Y-45362849D02*
X174165653Y-45362849D01*
X174165653Y-45362849D02*
X174241958Y-45324697D01*
X174241958Y-45324697D02*
X174280110Y-45286544D01*
X174280110Y-45286544D02*
X174318262Y-45210240D01*
X174318262Y-45210240D02*
X174318262Y-45057631D01*
X174318262Y-45057631D02*
X174280110Y-44981326D01*
X174280110Y-44981326D02*
X174241958Y-44943174D01*
X174241958Y-44943174D02*
X174165653Y-44905022D01*
X122225536Y-45270687D02*
X122339993Y-45308839D01*
X122339993Y-45308839D02*
X122530754Y-45308839D01*
X122530754Y-45308839D02*
X122607059Y-45270687D01*
X122607059Y-45270687D02*
X122645211Y-45232534D01*
X122645211Y-45232534D02*
X122683363Y-45156230D01*
X122683363Y-45156230D02*
X122683363Y-45079925D01*
X122683363Y-45079925D02*
X122645211Y-45003621D01*
X122645211Y-45003621D02*
X122607059Y-44965469D01*
X122607059Y-44965469D02*
X122530754Y-44927316D01*
X122530754Y-44927316D02*
X122378145Y-44889164D01*
X122378145Y-44889164D02*
X122301841Y-44851012D01*
X122301841Y-44851012D02*
X122263689Y-44812860D01*
X122263689Y-44812860D02*
X122225536Y-44736555D01*
X122225536Y-44736555D02*
X122225536Y-44660251D01*
X122225536Y-44660251D02*
X122263689Y-44583946D01*
X122263689Y-44583946D02*
X122301841Y-44545794D01*
X122301841Y-44545794D02*
X122378145Y-44507642D01*
X122378145Y-44507642D02*
X122568907Y-44507642D01*
X122568907Y-44507642D02*
X122683363Y-44545794D01*
X122950429Y-44507642D02*
X123141190Y-45308839D01*
X123141190Y-45308839D02*
X123293799Y-44736555D01*
X123293799Y-44736555D02*
X123446408Y-45308839D01*
X123446408Y-45308839D02*
X123637170Y-44507642D01*
X123980540Y-45308839D02*
X124133149Y-45308839D01*
X124133149Y-45308839D02*
X124209453Y-45270687D01*
X124209453Y-45270687D02*
X124247606Y-45232534D01*
X124247606Y-45232534D02*
X124323910Y-45118078D01*
X124323910Y-45118078D02*
X124362062Y-44965469D01*
X124362062Y-44965469D02*
X124362062Y-44660251D01*
X124362062Y-44660251D02*
X124323910Y-44583946D01*
X124323910Y-44583946D02*
X124285758Y-44545794D01*
X124285758Y-44545794D02*
X124209453Y-44507642D01*
X124209453Y-44507642D02*
X124056844Y-44507642D01*
X124056844Y-44507642D02*
X123980540Y-44545794D01*
X123980540Y-44545794D02*
X123942388Y-44583946D01*
X123942388Y-44583946D02*
X123904235Y-44660251D01*
X123904235Y-44660251D02*
X123904235Y-44851012D01*
X123904235Y-44851012D02*
X123942388Y-44927316D01*
X123942388Y-44927316D02*
X123980540Y-44965469D01*
X123980540Y-44965469D02*
X124056844Y-45003621D01*
X124056844Y-45003621D02*
X124209453Y-45003621D01*
X124209453Y-45003621D02*
X124285758Y-44965469D01*
X124285758Y-44965469D02*
X124323910Y-44927316D01*
X124323910Y-44927316D02*
X124362062Y-44851012D01*
X85594014Y-72020687D02*
X85708471Y-72058839D01*
X85708471Y-72058839D02*
X85899232Y-72058839D01*
X85899232Y-72058839D02*
X85975537Y-72020687D01*
X85975537Y-72020687D02*
X86013689Y-71982534D01*
X86013689Y-71982534D02*
X86051841Y-71906230D01*
X86051841Y-71906230D02*
X86051841Y-71829925D01*
X86051841Y-71829925D02*
X86013689Y-71753621D01*
X86013689Y-71753621D02*
X85975537Y-71715469D01*
X85975537Y-71715469D02*
X85899232Y-71677316D01*
X85899232Y-71677316D02*
X85746623Y-71639164D01*
X85746623Y-71639164D02*
X85670319Y-71601012D01*
X85670319Y-71601012D02*
X85632167Y-71562860D01*
X85632167Y-71562860D02*
X85594014Y-71486555D01*
X85594014Y-71486555D02*
X85594014Y-71410251D01*
X85594014Y-71410251D02*
X85632167Y-71333946D01*
X85632167Y-71333946D02*
X85670319Y-71295794D01*
X85670319Y-71295794D02*
X85746623Y-71257642D01*
X85746623Y-71257642D02*
X85937385Y-71257642D01*
X85937385Y-71257642D02*
X86051841Y-71295794D01*
X86318907Y-71257642D02*
X86509668Y-72058839D01*
X86509668Y-72058839D02*
X86662277Y-71486555D01*
X86662277Y-71486555D02*
X86814886Y-72058839D01*
X86814886Y-72058839D02*
X87005648Y-71257642D01*
X87730540Y-72058839D02*
X87272713Y-72058839D01*
X87501627Y-72058839D02*
X87501627Y-71257642D01*
X87501627Y-71257642D02*
X87425322Y-71372098D01*
X87425322Y-71372098D02*
X87349018Y-71448403D01*
X87349018Y-71448403D02*
X87272713Y-71486555D01*
X88035758Y-71333946D02*
X88073911Y-71295794D01*
X88073911Y-71295794D02*
X88150215Y-71257642D01*
X88150215Y-71257642D02*
X88340976Y-71257642D01*
X88340976Y-71257642D02*
X88417281Y-71295794D01*
X88417281Y-71295794D02*
X88455433Y-71333946D01*
X88455433Y-71333946D02*
X88493585Y-71410251D01*
X88493585Y-71410251D02*
X88493585Y-71486555D01*
X88493585Y-71486555D02*
X88455433Y-71601012D01*
X88455433Y-71601012D02*
X87997606Y-72058839D01*
X87997606Y-72058839D02*
X88493585Y-72058839D01*
X201431736Y-72324697D02*
X201546193Y-72362849D01*
X201546193Y-72362849D02*
X201736954Y-72362849D01*
X201736954Y-72362849D02*
X201813259Y-72324697D01*
X201813259Y-72324697D02*
X201851411Y-72286544D01*
X201851411Y-72286544D02*
X201889563Y-72210240D01*
X201889563Y-72210240D02*
X201889563Y-72133935D01*
X201889563Y-72133935D02*
X201851411Y-72057631D01*
X201851411Y-72057631D02*
X201813259Y-72019479D01*
X201813259Y-72019479D02*
X201736954Y-71981326D01*
X201736954Y-71981326D02*
X201584345Y-71943174D01*
X201584345Y-71943174D02*
X201508041Y-71905022D01*
X201508041Y-71905022D02*
X201469889Y-71866870D01*
X201469889Y-71866870D02*
X201431736Y-71790565D01*
X201431736Y-71790565D02*
X201431736Y-71714261D01*
X201431736Y-71714261D02*
X201469889Y-71637956D01*
X201469889Y-71637956D02*
X201508041Y-71599804D01*
X201508041Y-71599804D02*
X201584345Y-71561652D01*
X201584345Y-71561652D02*
X201775107Y-71561652D01*
X201775107Y-71561652D02*
X201889563Y-71599804D01*
X202156629Y-71561652D02*
X202347390Y-72362849D01*
X202347390Y-72362849D02*
X202499999Y-71790565D01*
X202499999Y-71790565D02*
X202652608Y-72362849D01*
X202652608Y-72362849D02*
X202843370Y-71561652D01*
X203110435Y-71637956D02*
X203148588Y-71599804D01*
X203148588Y-71599804D02*
X203224892Y-71561652D01*
X203224892Y-71561652D02*
X203415653Y-71561652D01*
X203415653Y-71561652D02*
X203491958Y-71599804D01*
X203491958Y-71599804D02*
X203530110Y-71637956D01*
X203530110Y-71637956D02*
X203568262Y-71714261D01*
X203568262Y-71714261D02*
X203568262Y-71790565D01*
X203568262Y-71790565D02*
X203530110Y-71905022D01*
X203530110Y-71905022D02*
X203072283Y-72362849D01*
X203072283Y-72362849D02*
X203568262Y-72362849D01*
X214416666Y-123954819D02*
X214083333Y-123478628D01*
X213845238Y-123954819D02*
X213845238Y-122954819D01*
X213845238Y-122954819D02*
X214226190Y-122954819D01*
X214226190Y-122954819D02*
X214321428Y-123002438D01*
X214321428Y-123002438D02*
X214369047Y-123050057D01*
X214369047Y-123050057D02*
X214416666Y-123145295D01*
X214416666Y-123145295D02*
X214416666Y-123288152D01*
X214416666Y-123288152D02*
X214369047Y-123383390D01*
X214369047Y-123383390D02*
X214321428Y-123431009D01*
X214321428Y-123431009D02*
X214226190Y-123478628D01*
X214226190Y-123478628D02*
X213845238Y-123478628D01*
X214845238Y-123431009D02*
X215178571Y-123431009D01*
X215321428Y-123954819D02*
X214845238Y-123954819D01*
X214845238Y-123954819D02*
X214845238Y-122954819D01*
X214845238Y-122954819D02*
X215321428Y-122954819D01*
X216083333Y-123431009D02*
X215750000Y-123431009D01*
X215750000Y-123954819D02*
X215750000Y-122954819D01*
X215750000Y-122954819D02*
X216226190Y-122954819D01*
X216750000Y-122954819D02*
X216750000Y-123192914D01*
X216511905Y-123097676D02*
X216750000Y-123192914D01*
X216750000Y-123192914D02*
X216988095Y-123097676D01*
X216607143Y-123383390D02*
X216750000Y-123192914D01*
X216750000Y-123192914D02*
X216892857Y-123383390D01*
X217511905Y-122954819D02*
X217511905Y-123192914D01*
X217273810Y-123097676D02*
X217511905Y-123192914D01*
X217511905Y-123192914D02*
X217750000Y-123097676D01*
X217369048Y-123383390D02*
X217511905Y-123192914D01*
X217511905Y-123192914D02*
X217654762Y-123383390D01*
X97166667Y-50832200D02*
X97309524Y-50879819D01*
X97309524Y-50879819D02*
X97547619Y-50879819D01*
X97547619Y-50879819D02*
X97642857Y-50832200D01*
X97642857Y-50832200D02*
X97690476Y-50784580D01*
X97690476Y-50784580D02*
X97738095Y-50689342D01*
X97738095Y-50689342D02*
X97738095Y-50594104D01*
X97738095Y-50594104D02*
X97690476Y-50498866D01*
X97690476Y-50498866D02*
X97642857Y-50451247D01*
X97642857Y-50451247D02*
X97547619Y-50403628D01*
X97547619Y-50403628D02*
X97357143Y-50356009D01*
X97357143Y-50356009D02*
X97261905Y-50308390D01*
X97261905Y-50308390D02*
X97214286Y-50260771D01*
X97214286Y-50260771D02*
X97166667Y-50165533D01*
X97166667Y-50165533D02*
X97166667Y-50070295D01*
X97166667Y-50070295D02*
X97214286Y-49975057D01*
X97214286Y-49975057D02*
X97261905Y-49927438D01*
X97261905Y-49927438D02*
X97357143Y-49879819D01*
X97357143Y-49879819D02*
X97595238Y-49879819D01*
X97595238Y-49879819D02*
X97738095Y-49927438D01*
X98071429Y-49879819D02*
X98309524Y-50879819D01*
X98309524Y-50879819D02*
X98500000Y-50165533D01*
X98500000Y-50165533D02*
X98690476Y-50879819D01*
X98690476Y-50879819D02*
X98928572Y-49879819D01*
X99785714Y-49879819D02*
X99309524Y-49879819D01*
X99309524Y-49879819D02*
X99261905Y-50356009D01*
X99261905Y-50356009D02*
X99309524Y-50308390D01*
X99309524Y-50308390D02*
X99404762Y-50260771D01*
X99404762Y-50260771D02*
X99642857Y-50260771D01*
X99642857Y-50260771D02*
X99738095Y-50308390D01*
X99738095Y-50308390D02*
X99785714Y-50356009D01*
X99785714Y-50356009D02*
X99833333Y-50451247D01*
X99833333Y-50451247D02*
X99833333Y-50689342D01*
X99833333Y-50689342D02*
X99785714Y-50784580D01*
X99785714Y-50784580D02*
X99738095Y-50832200D01*
X99738095Y-50832200D02*
X99642857Y-50879819D01*
X99642857Y-50879819D02*
X99404762Y-50879819D01*
X99404762Y-50879819D02*
X99309524Y-50832200D01*
X99309524Y-50832200D02*
X99261905Y-50784580D01*
X181725536Y-72520687D02*
X181839993Y-72558839D01*
X181839993Y-72558839D02*
X182030754Y-72558839D01*
X182030754Y-72558839D02*
X182107059Y-72520687D01*
X182107059Y-72520687D02*
X182145211Y-72482534D01*
X182145211Y-72482534D02*
X182183363Y-72406230D01*
X182183363Y-72406230D02*
X182183363Y-72329925D01*
X182183363Y-72329925D02*
X182145211Y-72253621D01*
X182145211Y-72253621D02*
X182107059Y-72215469D01*
X182107059Y-72215469D02*
X182030754Y-72177316D01*
X182030754Y-72177316D02*
X181878145Y-72139164D01*
X181878145Y-72139164D02*
X181801841Y-72101012D01*
X181801841Y-72101012D02*
X181763689Y-72062860D01*
X181763689Y-72062860D02*
X181725536Y-71986555D01*
X181725536Y-71986555D02*
X181725536Y-71910251D01*
X181725536Y-71910251D02*
X181763689Y-71833946D01*
X181763689Y-71833946D02*
X181801841Y-71795794D01*
X181801841Y-71795794D02*
X181878145Y-71757642D01*
X181878145Y-71757642D02*
X182068907Y-71757642D01*
X182068907Y-71757642D02*
X182183363Y-71795794D01*
X182450429Y-71757642D02*
X182641190Y-72558839D01*
X182641190Y-72558839D02*
X182793799Y-71986555D01*
X182793799Y-71986555D02*
X182946408Y-72558839D01*
X182946408Y-72558839D02*
X183137170Y-71757642D01*
X183366083Y-71757642D02*
X183862062Y-71757642D01*
X183862062Y-71757642D02*
X183594997Y-72062860D01*
X183594997Y-72062860D02*
X183709453Y-72062860D01*
X183709453Y-72062860D02*
X183785758Y-72101012D01*
X183785758Y-72101012D02*
X183823910Y-72139164D01*
X183823910Y-72139164D02*
X183862062Y-72215469D01*
X183862062Y-72215469D02*
X183862062Y-72406230D01*
X183862062Y-72406230D02*
X183823910Y-72482534D01*
X183823910Y-72482534D02*
X183785758Y-72520687D01*
X183785758Y-72520687D02*
X183709453Y-72558839D01*
X183709453Y-72558839D02*
X183480540Y-72558839D01*
X183480540Y-72558839D02*
X183404235Y-72520687D01*
X183404235Y-72520687D02*
X183366083Y-72482534D01*
X179604819Y-125083333D02*
X180319104Y-125083333D01*
X180319104Y-125083333D02*
X180461961Y-125130952D01*
X180461961Y-125130952D02*
X180557200Y-125226190D01*
X180557200Y-125226190D02*
X180604819Y-125369047D01*
X180604819Y-125369047D02*
X180604819Y-125464285D01*
X179604819Y-124702380D02*
X179604819Y-124083333D01*
X179604819Y-124083333D02*
X179985771Y-124416666D01*
X179985771Y-124416666D02*
X179985771Y-124273809D01*
X179985771Y-124273809D02*
X180033390Y-124178571D01*
X180033390Y-124178571D02*
X180081009Y-124130952D01*
X180081009Y-124130952D02*
X180176247Y-124083333D01*
X180176247Y-124083333D02*
X180414342Y-124083333D01*
X180414342Y-124083333D02*
X180509580Y-124130952D01*
X180509580Y-124130952D02*
X180557200Y-124178571D01*
X180557200Y-124178571D02*
X180604819Y-124273809D01*
X180604819Y-124273809D02*
X180604819Y-124559523D01*
X180604819Y-124559523D02*
X180557200Y-124654761D01*
X180557200Y-124654761D02*
X180509580Y-124702380D01*
X81166666Y-47704819D02*
X80833333Y-47228628D01*
X80595238Y-47704819D02*
X80595238Y-46704819D01*
X80595238Y-46704819D02*
X80976190Y-46704819D01*
X80976190Y-46704819D02*
X81071428Y-46752438D01*
X81071428Y-46752438D02*
X81119047Y-46800057D01*
X81119047Y-46800057D02*
X81166666Y-46895295D01*
X81166666Y-46895295D02*
X81166666Y-47038152D01*
X81166666Y-47038152D02*
X81119047Y-47133390D01*
X81119047Y-47133390D02*
X81071428Y-47181009D01*
X81071428Y-47181009D02*
X80976190Y-47228628D01*
X80976190Y-47228628D02*
X80595238Y-47228628D01*
X81595238Y-47181009D02*
X81928571Y-47181009D01*
X82071428Y-47704819D02*
X81595238Y-47704819D01*
X81595238Y-47704819D02*
X81595238Y-46704819D01*
X81595238Y-46704819D02*
X82071428Y-46704819D01*
X82833333Y-47181009D02*
X82500000Y-47181009D01*
X82500000Y-47704819D02*
X82500000Y-46704819D01*
X82500000Y-46704819D02*
X82976190Y-46704819D01*
X83500000Y-46704819D02*
X83500000Y-46942914D01*
X83261905Y-46847676D02*
X83500000Y-46942914D01*
X83500000Y-46942914D02*
X83738095Y-46847676D01*
X83357143Y-47133390D02*
X83500000Y-46942914D01*
X83500000Y-46942914D02*
X83642857Y-47133390D01*
X84261905Y-46704819D02*
X84261905Y-46942914D01*
X84023810Y-46847676D02*
X84261905Y-46942914D01*
X84261905Y-46942914D02*
X84500000Y-46847676D01*
X84119048Y-47133390D02*
X84261905Y-46942914D01*
X84261905Y-46942914D02*
X84404762Y-47133390D01*
X191431736Y-85020687D02*
X191546193Y-85058839D01*
X191546193Y-85058839D02*
X191736954Y-85058839D01*
X191736954Y-85058839D02*
X191813259Y-85020687D01*
X191813259Y-85020687D02*
X191851411Y-84982534D01*
X191851411Y-84982534D02*
X191889563Y-84906230D01*
X191889563Y-84906230D02*
X191889563Y-84829925D01*
X191889563Y-84829925D02*
X191851411Y-84753621D01*
X191851411Y-84753621D02*
X191813259Y-84715469D01*
X191813259Y-84715469D02*
X191736954Y-84677316D01*
X191736954Y-84677316D02*
X191584345Y-84639164D01*
X191584345Y-84639164D02*
X191508041Y-84601012D01*
X191508041Y-84601012D02*
X191469889Y-84562860D01*
X191469889Y-84562860D02*
X191431736Y-84486555D01*
X191431736Y-84486555D02*
X191431736Y-84410251D01*
X191431736Y-84410251D02*
X191469889Y-84333946D01*
X191469889Y-84333946D02*
X191508041Y-84295794D01*
X191508041Y-84295794D02*
X191584345Y-84257642D01*
X191584345Y-84257642D02*
X191775107Y-84257642D01*
X191775107Y-84257642D02*
X191889563Y-84295794D01*
X192156629Y-84257642D02*
X192347390Y-85058839D01*
X192347390Y-85058839D02*
X192499999Y-84486555D01*
X192499999Y-84486555D02*
X192652608Y-85058839D01*
X192652608Y-85058839D02*
X192843370Y-84257642D01*
X193568262Y-85058839D02*
X193110435Y-85058839D01*
X193339349Y-85058839D02*
X193339349Y-84257642D01*
X193339349Y-84257642D02*
X193263044Y-84372098D01*
X193263044Y-84372098D02*
X193186740Y-84448403D01*
X193186740Y-84448403D02*
X193110435Y-84486555D01*
X214166666Y-47704819D02*
X213833333Y-47228628D01*
X213595238Y-47704819D02*
X213595238Y-46704819D01*
X213595238Y-46704819D02*
X213976190Y-46704819D01*
X213976190Y-46704819D02*
X214071428Y-46752438D01*
X214071428Y-46752438D02*
X214119047Y-46800057D01*
X214119047Y-46800057D02*
X214166666Y-46895295D01*
X214166666Y-46895295D02*
X214166666Y-47038152D01*
X214166666Y-47038152D02*
X214119047Y-47133390D01*
X214119047Y-47133390D02*
X214071428Y-47181009D01*
X214071428Y-47181009D02*
X213976190Y-47228628D01*
X213976190Y-47228628D02*
X213595238Y-47228628D01*
X214595238Y-47181009D02*
X214928571Y-47181009D01*
X215071428Y-47704819D02*
X214595238Y-47704819D01*
X214595238Y-47704819D02*
X214595238Y-46704819D01*
X214595238Y-46704819D02*
X215071428Y-46704819D01*
X215833333Y-47181009D02*
X215500000Y-47181009D01*
X215500000Y-47704819D02*
X215500000Y-46704819D01*
X215500000Y-46704819D02*
X215976190Y-46704819D01*
X216500000Y-46704819D02*
X216500000Y-46942914D01*
X216261905Y-46847676D02*
X216500000Y-46942914D01*
X216500000Y-46942914D02*
X216738095Y-46847676D01*
X216357143Y-47133390D02*
X216500000Y-46942914D01*
X216500000Y-46942914D02*
X216642857Y-47133390D01*
X217261905Y-46704819D02*
X217261905Y-46942914D01*
X217023810Y-46847676D02*
X217261905Y-46942914D01*
X217261905Y-46942914D02*
X217500000Y-46847676D01*
X217119048Y-47133390D02*
X217261905Y-46942914D01*
X217261905Y-46942914D02*
X217404762Y-47133390D01*
D12*
%TO.C,SW6*%
X199130000Y-45255000D02*
X199130000Y-49105000D01*
X199130000Y-51745000D02*
X199130000Y-52045000D01*
X200020000Y-52045000D02*
X199130000Y-52045000D01*
X200020000Y-52045000D02*
X200020000Y-51695000D01*
X200510000Y-49495000D02*
X205490000Y-49495000D01*
X205980000Y-52045000D02*
X205980000Y-51695000D01*
X206870000Y-45255000D02*
X199130000Y-45255000D01*
X206870000Y-49105000D02*
X206870000Y-45255000D01*
X206870000Y-51745000D02*
X206870000Y-52045000D01*
X206870000Y-52045000D02*
X205980000Y-52045000D01*
D13*
%TO.C,SW10*%
X93750000Y-60500000D02*
X105750000Y-60500000D01*
X93750000Y-62705000D02*
X93750000Y-60500000D01*
X93750000Y-65295000D02*
X93750000Y-67705000D01*
X93750000Y-70300000D02*
X93750000Y-72500000D01*
X93750000Y-72500000D02*
X105750000Y-72500000D01*
X105750000Y-60500000D02*
X105750000Y-62705000D01*
X105750000Y-65295000D02*
X105750000Y-67705000D01*
X105750000Y-72500000D02*
X105750000Y-70300000D01*
D14*
X92850000Y-62000000D02*
G75*
G02*
X92650000Y-62000000I-100000J0D01*
G01*
X92650000Y-62000000D02*
G75*
G02*
X92850000Y-62000000I100000J0D01*
G01*
D13*
%TO.C,SW4*%
X192250000Y-61000000D02*
X204250000Y-61000000D01*
X192250000Y-63205000D02*
X192250000Y-61000000D01*
X192250000Y-65795000D02*
X192250000Y-68205000D01*
X192250000Y-70800000D02*
X192250000Y-73000000D01*
X192250000Y-73000000D02*
X204250000Y-73000000D01*
X204250000Y-61000000D02*
X204250000Y-63205000D01*
X204250000Y-65795000D02*
X204250000Y-68205000D01*
X204250000Y-73000000D02*
X204250000Y-70800000D01*
D14*
X191350000Y-62500000D02*
G75*
G02*
X191150000Y-62500000I-100000J0D01*
G01*
X191150000Y-62500000D02*
G75*
G02*
X191350000Y-62500000I100000J0D01*
G01*
D12*
%TO.C,D1*%
X130435000Y-103290000D02*
X130435000Y-109450000D01*
X130435000Y-103290000D02*
X135555000Y-103290000D01*
X135555000Y-103290000D02*
X135555000Y-109450000D01*
X131725000Y-98080000D02*
X131725000Y-103290000D01*
X131725000Y-98080000D01*
X134265000Y-98080000D02*
X134265000Y-103290000D01*
X134265000Y-98080000D01*
X135555000Y-103290000D02*
X135955000Y-103290000D01*
X135955000Y-104410000D01*
X135555000Y-104410000D01*
X135555000Y-103290000D01*
X135555000Y-109450000D02*
G75*
G02*
X130435000Y-109450000I-2560000J0D01*
G01*
%TO.C,U1*%
D11*
X156782460Y-48119813D02*
X149162460Y-48119813D01*
X149162460Y-43865634D01*
X156782460Y-43865634D01*
X156782460Y-48119813D01*
D14*
X167302460Y-96379813D02*
X139002460Y-96379813D01*
X139002460Y-44879813D01*
X167302460Y-44879813D01*
X167302460Y-96379813D01*
D12*
%TO.C,J1*%
X111900000Y-129405000D02*
X111900000Y-128135000D01*
X112740000Y-126975000D02*
X112740000Y-126745000D01*
X113170000Y-129405000D02*
X111900000Y-129405000D01*
X113600000Y-126975000D02*
X113600000Y-126745000D01*
X114440000Y-126745000D02*
X114440000Y-123985000D01*
X115280000Y-117985000D02*
X116140000Y-117985000D01*
X115280000Y-123985000D02*
X115280000Y-117985000D01*
X115280000Y-127057642D02*
X115280000Y-126745000D01*
X116140000Y-117985000D02*
X116140000Y-123985000D01*
X116140000Y-127057642D02*
X116140000Y-126745000D01*
X116980000Y-126745000D02*
X116980000Y-123985000D01*
X117820000Y-117985000D02*
X118680000Y-117985000D01*
X117820000Y-123985000D02*
X117820000Y-117985000D01*
X117820000Y-127057642D02*
X117820000Y-126745000D01*
X118680000Y-117985000D02*
X118680000Y-123985000D01*
X118680000Y-127057642D02*
X118680000Y-126745000D01*
X119520000Y-126745000D02*
X119520000Y-123985000D01*
X120360000Y-117985000D02*
X121220000Y-117985000D01*
X120360000Y-123985000D02*
X120360000Y-117985000D01*
X120360000Y-127057642D02*
X120360000Y-126745000D01*
X121220000Y-117985000D02*
X121220000Y-123985000D01*
X121220000Y-127057642D02*
X121220000Y-126745000D01*
X122060000Y-126745000D02*
X122060000Y-123985000D01*
X122900000Y-117985000D02*
X123760000Y-117985000D01*
X122900000Y-123985000D02*
X122900000Y-117985000D01*
X122900000Y-127057642D02*
X122900000Y-126745000D01*
X123760000Y-117985000D02*
X123760000Y-123985000D01*
X123760000Y-127057642D02*
X123760000Y-126745000D01*
X111790000Y-126745000D02*
X124710000Y-126745000D01*
X124710000Y-123985000D01*
X111790000Y-123985000D01*
X111790000Y-126745000D01*
X112740000Y-123985000D02*
X113600000Y-123985000D01*
X113600000Y-117985000D01*
X112740000Y-117985000D01*
X112740000Y-123985000D01*
G36*
X112740000Y-123985000D02*
G01*
X113600000Y-123985000D01*
X113600000Y-117985000D01*
X112740000Y-117985000D01*
X112740000Y-123985000D01*
G37*
D13*
%TO.C,SW11*%
X94000000Y-85500000D02*
X106000000Y-85500000D01*
X94000000Y-87705000D02*
X94000000Y-85500000D01*
X94000000Y-90295000D02*
X94000000Y-92705000D01*
X94000000Y-95300000D02*
X94000000Y-97500000D01*
X94000000Y-97500000D02*
X106000000Y-97500000D01*
X106000000Y-85500000D02*
X106000000Y-87705000D01*
X106000000Y-90295000D02*
X106000000Y-92705000D01*
X106000000Y-97500000D02*
X106000000Y-95300000D01*
D14*
X93100000Y-87000000D02*
G75*
G02*
X92900000Y-87000000I-100000J0D01*
G01*
X92900000Y-87000000D02*
G75*
G02*
X93100000Y-87000000I100000J0D01*
G01*
D13*
%TO.C,SW13*%
X102250000Y-73000000D02*
X114250000Y-73000000D01*
X102250000Y-75205000D02*
X102250000Y-73000000D01*
X102250000Y-77795000D02*
X102250000Y-80205000D01*
X102250000Y-82800000D02*
X102250000Y-85000000D01*
X102250000Y-85000000D02*
X114250000Y-85000000D01*
X114250000Y-73000000D02*
X114250000Y-75205000D01*
X114250000Y-77795000D02*
X114250000Y-80205000D01*
X114250000Y-85000000D02*
X114250000Y-82800000D01*
D14*
X101350000Y-74500000D02*
G75*
G02*
X101150000Y-74500000I-100000J0D01*
G01*
X101150000Y-74500000D02*
G75*
G02*
X101350000Y-74500000I100000J0D01*
G01*
D13*
%TO.C,SW8*%
X171250000Y-46000000D02*
X183250000Y-46000000D01*
X171250000Y-48205000D02*
X171250000Y-46000000D01*
X171250000Y-50795000D02*
X171250000Y-53205000D01*
X171250000Y-55800000D02*
X171250000Y-58000000D01*
X171250000Y-58000000D02*
X183250000Y-58000000D01*
X183250000Y-46000000D02*
X183250000Y-48205000D01*
X183250000Y-50795000D02*
X183250000Y-53205000D01*
X183250000Y-58000000D02*
X183250000Y-55800000D01*
D14*
X170350000Y-47500000D02*
G75*
G02*
X170150000Y-47500000I-100000J0D01*
G01*
X170150000Y-47500000D02*
G75*
G02*
X170350000Y-47500000I100000J0D01*
G01*
D13*
%TO.C,SW9*%
X122500000Y-46250000D02*
X134500000Y-46250000D01*
X122500000Y-48455000D02*
X122500000Y-46250000D01*
X122500000Y-51045000D02*
X122500000Y-53455000D01*
X122500000Y-56050000D02*
X122500000Y-58250000D01*
X122500000Y-58250000D02*
X134500000Y-58250000D01*
X134500000Y-46250000D02*
X134500000Y-48455000D01*
X134500000Y-51045000D02*
X134500000Y-53455000D01*
X134500000Y-58250000D02*
X134500000Y-56050000D01*
D14*
X121600000Y-47750000D02*
G75*
G02*
X121400000Y-47750000I-100000J0D01*
G01*
X121400000Y-47750000D02*
G75*
G02*
X121600000Y-47750000I100000J0D01*
G01*
D13*
%TO.C,SW12*%
X86250000Y-73000000D02*
X98250000Y-73000000D01*
X86250000Y-75205000D02*
X86250000Y-73000000D01*
X86250000Y-77795000D02*
X86250000Y-80205000D01*
X86250000Y-82800000D02*
X86250000Y-85000000D01*
X86250000Y-85000000D02*
X98250000Y-85000000D01*
X98250000Y-73000000D02*
X98250000Y-75205000D01*
X98250000Y-77795000D02*
X98250000Y-80205000D01*
X98250000Y-85000000D02*
X98250000Y-82800000D01*
D14*
X85350000Y-74500000D02*
G75*
G02*
X85150000Y-74500000I-100000J0D01*
G01*
X85150000Y-74500000D02*
G75*
G02*
X85350000Y-74500000I100000J0D01*
G01*
D13*
%TO.C,SW2*%
X202500000Y-73500000D02*
X214500000Y-73500000D01*
X202500000Y-75705000D02*
X202500000Y-73500000D01*
X202500000Y-78295000D02*
X202500000Y-80705000D01*
X202500000Y-83300000D02*
X202500000Y-85500000D01*
X202500000Y-85500000D02*
X214500000Y-85500000D01*
X214500000Y-73500000D02*
X214500000Y-75705000D01*
X214500000Y-78295000D02*
X214500000Y-80705000D01*
X214500000Y-85500000D02*
X214500000Y-83300000D01*
D14*
X201600000Y-75000000D02*
G75*
G02*
X201400000Y-75000000I-100000J0D01*
G01*
X201400000Y-75000000D02*
G75*
G02*
X201600000Y-75000000I100000J0D01*
G01*
D12*
%TO.C,SW5*%
X94630000Y-45255000D02*
X94630000Y-49105000D01*
X94630000Y-51745000D02*
X94630000Y-52045000D01*
X95520000Y-52045000D02*
X94630000Y-52045000D01*
X95520000Y-52045000D02*
X95520000Y-51695000D01*
X96010000Y-49495000D02*
X100990000Y-49495000D01*
X101480000Y-52045000D02*
X101480000Y-51695000D01*
X102370000Y-45255000D02*
X94630000Y-45255000D01*
X102370000Y-49105000D02*
X102370000Y-45255000D01*
X102370000Y-51745000D02*
X102370000Y-52045000D01*
X102370000Y-52045000D02*
X101480000Y-52045000D01*
D13*
%TO.C,SW3*%
X182000000Y-73500000D02*
X194000000Y-73500000D01*
X182000000Y-75705000D02*
X182000000Y-73500000D01*
X182000000Y-78295000D02*
X182000000Y-80705000D01*
X182000000Y-83300000D02*
X182000000Y-85500000D01*
X182000000Y-85500000D02*
X194000000Y-85500000D01*
X194000000Y-73500000D02*
X194000000Y-75705000D01*
X194000000Y-78295000D02*
X194000000Y-80705000D01*
X194000000Y-85500000D02*
X194000000Y-83300000D01*
D14*
X181100000Y-75000000D02*
G75*
G02*
X180900000Y-75000000I-100000J0D01*
G01*
X180900000Y-75000000D02*
G75*
G02*
X181100000Y-75000000I100000J0D01*
G01*
D12*
%TO.C,J3*%
X181150000Y-130405000D02*
X181150000Y-129135000D01*
X181990000Y-127975000D02*
X181990000Y-127745000D01*
X182420000Y-130405000D02*
X181150000Y-130405000D01*
X182850000Y-127975000D02*
X182850000Y-127745000D01*
X183690000Y-127745000D02*
X183690000Y-124985000D01*
X184530000Y-118985000D02*
X185390000Y-118985000D01*
X184530000Y-124985000D02*
X184530000Y-118985000D01*
X184530000Y-128057642D02*
X184530000Y-127745000D01*
X185390000Y-118985000D02*
X185390000Y-124985000D01*
X185390000Y-128057642D02*
X185390000Y-127745000D01*
X186230000Y-127745000D02*
X186230000Y-124985000D01*
X187070000Y-118985000D02*
X187930000Y-118985000D01*
X187070000Y-124985000D02*
X187070000Y-118985000D01*
X187070000Y-128057642D02*
X187070000Y-127745000D01*
X187930000Y-118985000D02*
X187930000Y-124985000D01*
X187930000Y-128057642D02*
X187930000Y-127745000D01*
X188770000Y-127745000D02*
X188770000Y-124985000D01*
X189610000Y-118985000D02*
X190470000Y-118985000D01*
X189610000Y-124985000D02*
X189610000Y-118985000D01*
X189610000Y-128057642D02*
X189610000Y-127745000D01*
X190470000Y-118985000D02*
X190470000Y-124985000D01*
X190470000Y-128057642D02*
X190470000Y-127745000D01*
X191310000Y-127745000D02*
X191310000Y-124985000D01*
X192150000Y-118985000D02*
X193010000Y-118985000D01*
X192150000Y-124985000D02*
X192150000Y-118985000D01*
X192150000Y-128057642D02*
X192150000Y-127745000D01*
X193010000Y-118985000D02*
X193010000Y-124985000D01*
X193010000Y-128057642D02*
X193010000Y-127745000D01*
X181040000Y-127745000D02*
X193960000Y-127745000D01*
X193960000Y-124985000D01*
X181040000Y-124985000D01*
X181040000Y-127745000D01*
X181990000Y-124985000D02*
X182850000Y-124985000D01*
X182850000Y-118985000D01*
X181990000Y-118985000D01*
X181990000Y-124985000D01*
G36*
X181990000Y-124985000D02*
G01*
X182850000Y-124985000D01*
X182850000Y-118985000D01*
X181990000Y-118985000D01*
X181990000Y-124985000D01*
G37*
D13*
%TO.C,SW1*%
X192250000Y-86000000D02*
X204250000Y-86000000D01*
X192250000Y-88205000D02*
X192250000Y-86000000D01*
X192250000Y-90795000D02*
X192250000Y-93205000D01*
X192250000Y-95800000D02*
X192250000Y-98000000D01*
X192250000Y-98000000D02*
X204250000Y-98000000D01*
X204250000Y-86000000D02*
X204250000Y-88205000D01*
X204250000Y-90795000D02*
X204250000Y-93205000D01*
X204250000Y-98000000D02*
X204250000Y-95800000D01*
D14*
X191350000Y-87500000D02*
G75*
G02*
X191150000Y-87500000I-100000J0D01*
G01*
X191150000Y-87500000D02*
G75*
G02*
X191350000Y-87500000I100000J0D01*
G01*
%TD*%
M02*
