M48
; DRILL file {KiCad 9.0.7} date 2026-06-26T14:52:57+0530
; FORMAT={-:-/ absolute / metric / decimal}
; #@! TF.CreationDate,2026-06-26T14:52:57+05:30
; #@! TF.GenerationSoftware,Kicad,Pcbnew,9.0.7
; #@! TF.FileFunction,Plated,1,2,PTH
FMAT,2
METRIC
; #@! TA.AperFunction,Plated,PTH,ViaDrill
T1C0.300
; #@! TA.AperFunction,Plated,PTH,ComponentDrill
T2C0.800
; #@! TA.AperFunction,Plated,PTH,ComponentDrill
T3C0.900
; #@! TA.AperFunction,Plated,PTH,ComponentDrill
T4C1.000
; #@! TA.AperFunction,Plated,PTH,ComponentDrill
T5C1.300
; #@! TA.AperFunction,Plated,PTH,ComponentDrill
T6C3.200
%
G90
G05
T1
X105.0Y-107.0
X108.0Y-72.5
X108.5Y-122.624
X110.32Y-124.75
X114.25Y-123.0
X115.6Y-125.65
X120.5Y-83.0
X121.0Y-125.25
X133.5Y-114.0
X138.0Y-56.5
X143.4Y-112.5
X146.5Y-126.5
X147.0Y-55.0
X152.0Y-72.5
X170.1Y-74.0
X172.4Y-76.5
X172.4Y-80.0
X172.4Y-83.0
X179.5Y-79.5
X186.201Y-121.299
X190.9Y-126.25
T2
X140.5Y-52.96
X140.5Y-55.5
X140.5Y-58.04
X140.5Y-60.58
X140.5Y-63.12
X140.5Y-65.66
X140.5Y-68.2
X140.5Y-70.74
X140.5Y-73.28
X140.5Y-75.82
X140.5Y-78.36
X140.5Y-80.9
X140.5Y-83.44
X140.5Y-85.98
X140.5Y-88.52
X165.9Y-52.96
X165.9Y-55.5
X165.9Y-58.04
X165.9Y-60.58
X165.9Y-63.12
X165.9Y-65.66
X165.9Y-68.2
X165.9Y-70.74
X165.9Y-73.28
X165.9Y-75.82
X165.9Y-78.36
X165.9Y-80.9
X165.9Y-83.44
X165.9Y-85.98
X165.9Y-88.52
T3
X131.725Y-97.0
X134.265Y-97.0
T4
X90.5Y-124.25
X90.5Y-126.79
X96.25Y-47.925
X100.75Y-47.925
X113.17Y-128.135
X115.71Y-128.135
X118.25Y-128.135
X120.79Y-128.135
X123.33Y-128.135
X133.5Y-127.0
X136.04Y-127.0
X145.96Y-108.5
X145.96Y-131.5
X148.5Y-108.5
X157.42Y-108.5
X159.96Y-108.5
X159.96Y-131.5
X182.42Y-129.135
X184.96Y-129.135
X187.5Y-129.135
X190.04Y-129.135
X192.58Y-129.135
X200.75Y-47.925
X205.25Y-47.925
T5
X86.0Y-76.5
X86.0Y-81.5
X93.5Y-64.0
X93.5Y-69.0
X93.75Y-89.0
X93.75Y-94.0
X95.0Y-50.425
X98.5Y-76.5
X98.5Y-81.5
X102.0Y-50.425
X102.0Y-76.5
X102.0Y-81.5
X106.0Y-64.0
X106.0Y-69.0
X106.25Y-89.0
X106.25Y-94.0
X114.5Y-76.5
X114.5Y-81.5
X122.25Y-49.75
X122.25Y-54.75
X134.75Y-49.75
X134.75Y-54.75
X171.0Y-49.5
X171.0Y-54.5
X181.75Y-77.0
X181.75Y-82.0
X183.5Y-49.5
X183.5Y-54.5
X192.0Y-64.5
X192.0Y-69.5
X192.0Y-89.5
X192.0Y-94.5
X194.25Y-77.0
X194.25Y-82.0
X199.5Y-50.425
X202.25Y-77.0
X202.25Y-82.0
X204.5Y-64.5
X204.5Y-69.5
X204.5Y-89.5
X204.5Y-94.5
X206.5Y-50.425
X214.75Y-77.0
X214.75Y-82.0
T6
X82.5Y-51.0
X82.75Y-127.25
X215.5Y-51.0
X215.75Y-127.25
M30
